<svg width="274" height="88" viewBox="0 0 274 88" fill="none" xmlns="http://www.w3.org/2000/svg">
<g filter="url(#filter0_d_31_12)">
<path d="M26.95 19.9V26.75H12.65V34.15H23.35V40.8H12.65V55H4.1V19.9H26.95ZM57.7437 40.6C57.7437 41.4 57.6938 42.2333 57.5938 43.1H38.2438C38.3771 44.8333 38.9271 46.1667 39.8938 47.1C40.8938 48 42.1104 48.45 43.5438 48.45C45.6771 48.45 47.1604 47.55 47.9938 45.75H57.0938C56.6271 47.5833 55.7771 49.2333 54.5438 50.7C53.3438 52.1667 51.8271 53.3167 49.9938 54.15C48.1604 54.9833 46.1104 55.4 43.8438 55.4C41.1104 55.4 38.6771 54.8167 36.5438 53.65C34.4104 52.4833 32.7438 50.8167 31.5438 48.65C30.3438 46.4833 29.7438 43.95 29.7438 41.05C29.7438 38.15 30.3271 35.6167 31.4938 33.45C32.6938 31.2833 34.3604 29.6167 36.4938 28.45C38.6271 27.2833 41.0771 26.7 43.8438 26.7C46.5438 26.7 48.9438 27.2667 51.0438 28.4C53.1438 29.5333 54.7771 31.15 55.9438 33.25C57.1438 35.35 57.7437 37.8 57.7437 40.6ZM48.9938 38.35C48.9938 36.8833 48.4938 35.7167 47.4938 34.85C46.4938 33.9833 45.2438 33.55 43.7438 33.55C42.3104 33.55 41.0938 33.9667 40.0938 34.8C39.1271 35.6333 38.5271 36.8167 38.2938 38.35H48.9938ZM88.5543 40.6C88.5543 41.4 88.5043 42.2333 88.4043 43.1H69.0543C69.1876 44.8333 69.7376 46.1667 70.7043 47.1C71.7043 48 72.921 48.45 74.3543 48.45C76.4876 48.45 77.971 47.55 78.8043 45.75H87.9043C87.4376 47.5833 86.5876 49.2333 85.3543 50.7C84.1543 52.1667 82.6376 53.3167 80.8043 54.15C78.971 54.9833 76.921 55.4 74.6543 55.4C71.921 55.4 69.4876 54.8167 67.3543 53.65C65.221 52.4833 63.5543 50.8167 62.3543 48.65C61.1543 46.4833 60.5543 43.95 60.5543 41.05C60.5543 38.15 61.1376 35.6167 62.3043 33.45C63.5043 31.2833 65.171 29.6167 67.3043 28.45C69.4376 27.2833 71.8876 26.7 74.6543 26.7C77.3543 26.7 79.7543 27.2667 81.8543 28.4C83.9543 29.5333 85.5876 31.15 86.7543 33.25C87.9543 35.35 88.5543 37.8 88.5543 40.6ZM79.8043 38.35C79.8043 36.8833 79.3043 35.7167 78.3043 34.85C77.3043 33.9833 76.0543 33.55 74.5543 33.55C73.121 33.55 71.9043 33.9667 70.9043 34.8C69.9376 35.6333 69.3376 36.8167 69.1043 38.35H79.8043ZM91.3648 41C91.3648 38.1333 91.8982 35.6167 92.9648 33.45C94.0648 31.2833 95.5482 29.6167 97.4148 28.45C99.2815 27.2833 101.365 26.7 103.665 26.7C105.498 26.7 107.165 27.0833 108.665 27.85C110.198 28.6167 111.398 29.65 112.265 30.95V18H120.815V55H112.265V51C111.465 52.3333 110.315 53.4 108.815 54.2C107.348 55 105.632 55.4 103.665 55.4C101.365 55.4 99.2815 54.8167 97.4148 53.65C95.5482 52.45 94.0648 50.7667 92.9648 48.6C91.8982 46.4 91.3648 43.8667 91.3648 41ZM112.265 41.05C112.265 38.9167 111.665 37.2333 110.465 36C109.298 34.7667 107.865 34.15 106.165 34.15C104.465 34.15 103.015 34.7667 101.815 36C100.648 37.2 100.065 38.8667 100.065 41C100.065 43.1333 100.648 44.8333 101.815 46.1C103.015 47.3333 104.465 47.95 106.165 47.95C107.865 47.95 109.298 47.3333 110.465 46.1C111.665 44.8667 112.265 43.1833 112.265 41.05ZM148.25 37C150.284 37.4333 151.917 38.45 153.15 40.05C154.384 41.6167 155 43.4167 155 45.45C155 48.3833 153.967 50.7167 151.9 52.45C149.867 54.15 147.017 55 143.35 55H127V19.9H142.8C146.367 19.9 149.15 20.7167 151.15 22.35C153.184 23.9833 154.2 26.2 154.2 29C154.2 31.0667 153.65 32.7833 152.55 34.15C151.484 35.5167 150.05 36.4667 148.25 37ZM135.55 34.1H141.15C142.55 34.1 143.617 33.8 144.35 33.2C145.117 32.5667 145.5 31.65 145.5 30.45C145.5 29.25 145.117 28.3333 144.35 27.7C143.617 27.0667 142.55 26.75 141.15 26.75H135.55V34.1ZM141.85 48.1C143.284 48.1 144.384 47.7833 145.15 47.15C145.95 46.4833 146.35 45.5333 146.35 44.3C146.35 43.0667 145.934 42.1 145.1 41.4C144.3 40.7 143.184 40.35 141.75 40.35H135.55V48.1H141.85ZM164.259 24.2C162.759 24.2 161.526 23.7667 160.559 22.9C159.626 22 159.159 20.9 159.159 19.6C159.159 18.2667 159.626 17.1667 160.559 16.3C161.526 15.4 162.759 14.95 164.259 14.95C165.726 14.95 166.926 15.4 167.859 16.3C168.826 17.1667 169.309 18.2667 169.309 19.6C169.309 20.9 168.826 22 167.859 22.9C166.926 23.7667 165.726 24.2 164.259 24.2ZM168.509 27.1V55H159.959V27.1H168.509ZM191.705 26.8C194.972 26.8 197.572 27.8667 199.505 30C201.472 32.1 202.455 35 202.455 38.7V55H193.955V39.85C193.955 37.9833 193.472 36.5333 192.505 35.5C191.539 34.4667 190.239 33.95 188.605 33.95C186.972 33.95 185.672 34.4667 184.705 35.5C183.739 36.5333 183.255 37.9833 183.255 39.85V55H174.705V27.1H183.255V30.8C184.122 29.5667 185.289 28.6 186.755 27.9C188.222 27.1667 189.872 26.8 191.705 26.8ZM218.997 26.7C220.964 26.7 222.68 27.1 224.147 27.9C225.647 28.7 226.797 29.75 227.597 31.05V27.1H236.147V54.95C236.147 57.5167 235.63 59.8333 234.597 61.9C233.597 64 232.047 65.6667 229.947 66.9C227.88 68.1333 225.297 68.75 222.197 68.75C218.064 68.75 214.714 67.7667 212.147 65.8C209.58 63.8667 208.114 61.2333 207.747 57.9H216.197C216.464 58.9667 217.097 59.8 218.097 60.4C219.097 61.0333 220.33 61.35 221.797 61.35C223.564 61.35 224.964 60.8333 225.997 59.8C227.064 58.8 227.597 57.1833 227.597 54.95V51C226.764 52.3 225.614 53.3667 224.147 54.2C222.68 55 220.964 55.4 218.997 55.4C216.697 55.4 214.614 54.8167 212.747 53.65C210.88 52.45 209.397 50.7667 208.297 48.6C207.23 46.4 206.697 43.8667 206.697 41C206.697 38.1333 207.23 35.6167 208.297 33.45C209.397 31.2833 210.88 29.6167 212.747 28.45C214.614 27.2833 216.697 26.7 218.997 26.7ZM227.597 41.05C227.597 38.9167 226.997 37.2333 225.797 36C224.63 34.7667 223.197 34.15 221.497 34.15C219.797 34.15 218.347 34.7667 217.147 36C215.98 37.2 215.397 38.8667 215.397 41C215.397 43.1333 215.98 44.8333 217.147 46.1C218.347 47.3333 219.797 47.95 221.497 47.95C223.197 47.95 224.63 47.3333 225.797 46.1C226.997 44.8667 227.597 43.1833 227.597 41.05ZM255.032 55.4C252.299 55.4 249.832 54.8167 247.632 53.65C245.466 52.4833 243.749 50.8167 242.482 48.65C241.249 46.4833 240.632 43.95 240.632 41.05C240.632 38.1833 241.266 35.6667 242.532 33.5C243.799 31.3 245.532 29.6167 247.732 28.45C249.932 27.2833 252.399 26.7 255.132 26.7C257.866 26.7 260.332 27.2833 262.532 28.45C264.732 29.6167 266.466 31.3 267.732 33.5C268.999 35.6667 269.632 38.1833 269.632 41.05C269.632 43.9167 268.982 46.45 267.682 48.65C266.416 50.8167 264.666 52.4833 262.432 53.65C260.232 54.8167 257.766 55.4 255.032 55.4ZM255.032 48C256.666 48 258.049 47.4 259.182 46.2C260.349 45 260.932 43.2833 260.932 41.05C260.932 38.8167 260.366 37.1 259.232 35.9C258.132 34.7 256.766 34.1 255.132 34.1C253.466 34.1 252.082 34.7 250.982 35.9C249.882 37.0667 249.332 38.7833 249.332 41.05C249.332 43.2833 249.866 45 250.932 46.2C252.032 47.4 253.399 48 255.032 48Z" fill="#242D3D"/>
</g>
<g filter="url(#filter1_i_31_12)">
<path d="M170 19C170 22.3137 167 25 164 25C160.686 25 158 22.3137 158 19C158 15.6863 160.686 13 164 13C167.314 13 170 15.6863 170 19Z" fill="#00B288"/>
</g>
<path d="M18.2578 84V74.1357H24.2461V75.2432H19.4883V78.6338H23.8564V79.7275H19.4883V84H18.2578ZM26.2695 84V74.1357H32.3809V75.2432H27.5V78.4082H32.1279V79.502H27.5V82.8926H32.3809V84H26.2695ZM34.6094 84V74.1357H40.7207V75.2432H35.8398V78.4082H40.4678V79.502H35.8398V82.8926H40.7207V84H34.6094ZM42.9492 84V74.1357H46.333C47.3083 74.1357 48.1423 74.3317 48.835 74.7236C49.5322 75.111 50.0654 75.6715 50.4346 76.4053C50.8037 77.139 50.9883 78.0231 50.9883 79.0576V79.0713C50.9883 80.1058 50.8037 80.9922 50.4346 81.7305C50.0654 82.4642 49.5345 83.027 48.8418 83.4189C48.1491 83.8063 47.3128 84 46.333 84H42.9492ZM44.1797 82.8926H46.251C46.9847 82.8926 47.6113 82.7422 48.1309 82.4414C48.6504 82.1406 49.0469 81.7054 49.3203 81.1357C49.5938 80.5661 49.7305 79.8825 49.7305 79.085V79.0713C49.7305 78.2692 49.5915 77.5833 49.3135 77.0137C49.04 76.4395 48.6436 76.002 48.124 75.7012C47.6045 75.3958 46.9801 75.2432 46.251 75.2432H44.1797V82.8926ZM53.7363 84V82.9131H56.7852C57.528 82.9131 58.0908 82.765 58.4736 82.4688C58.8564 82.1725 59.0479 81.7419 59.0479 81.1768V81.1631C59.0479 80.7848 58.959 80.4681 58.7812 80.2129C58.6035 79.9577 58.3369 79.7663 57.9814 79.6387C57.6305 79.5111 57.193 79.4473 56.6689 79.4473H53.7363V78.3877H56.3203C57.0677 78.3877 57.6283 78.2555 58.002 77.9912C58.3802 77.7269 58.5693 77.335 58.5693 76.8154V76.8018C58.5693 76.3005 58.3984 75.9131 58.0566 75.6396C57.7194 75.3617 57.2454 75.2227 56.6348 75.2227H53.7363V74.1357H56.8945C57.5007 74.1357 58.0202 74.236 58.4531 74.4365C58.8906 74.637 59.2256 74.9219 59.458 75.291C59.695 75.6556 59.8135 76.0885 59.8135 76.5898V76.6035C59.8135 76.9453 59.736 77.2666 59.5811 77.5674C59.4307 77.8682 59.2279 78.1211 58.9727 78.3262C58.7174 78.5312 58.4303 78.6634 58.1113 78.7227V78.832C58.5625 78.8867 58.9521 79.0212 59.2803 79.2354C59.6084 79.4495 59.8613 79.7275 60.0391 80.0693C60.2214 80.4066 60.3125 80.7917 60.3125 81.2246V81.2383C60.3125 81.8125 60.1781 82.307 59.9092 82.7217C59.6449 83.1318 59.2643 83.4486 58.7676 83.6719C58.2708 83.8906 57.6715 84 56.9697 84H53.7363ZM53.1211 84V74.1357H54.3516V84H53.1211ZM61.5361 84L65.1729 74.1357H66.1162V75.7285H65.7266L62.8281 84H61.5361ZM63.1836 81.1768L63.5664 80.1309H68.0234L68.4062 81.1768H63.1836ZM68.7344 84L65.8359 75.7285V74.1357H66.3896L70.0264 84H68.7344ZM75.249 84.2324C74.3558 84.2324 73.5833 84.0228 72.9316 83.6035C72.2799 83.1842 71.7764 82.5895 71.4209 81.8193C71.07 81.0492 70.8945 80.1354 70.8945 79.0781V79.0645C70.8945 78.0026 71.07 77.0866 71.4209 76.3164C71.7764 75.5462 72.2777 74.9515 72.9248 74.5322C73.5765 74.113 74.349 73.9033 75.2422 73.9033C75.9349 73.9033 76.5638 74.04 77.1289 74.3135C77.6986 74.5824 78.168 74.9583 78.5371 75.4414C78.9062 75.9199 79.1387 76.4736 79.2344 77.1025L79.2275 77.1162H77.9902L77.9834 77.1025C77.874 76.6787 77.6895 76.3141 77.4297 76.0088C77.1699 75.6989 76.8532 75.4596 76.4795 75.291C76.1104 75.1224 75.6979 75.0381 75.2422 75.0381C74.6133 75.0381 74.0664 75.2021 73.6016 75.5303C73.1413 75.8584 72.7858 76.3232 72.5352 76.9248C72.2845 77.5264 72.1592 78.2396 72.1592 79.0645V79.0781C72.1592 79.8984 72.2845 80.6094 72.5352 81.2109C72.7858 81.8125 73.1413 82.2773 73.6016 82.6055C74.0664 82.9336 74.6156 83.0977 75.249 83.0977C75.7093 83.0977 76.1263 83.0247 76.5 82.8789C76.8737 82.7285 77.1882 82.5166 77.4434 82.2432C77.6986 81.9652 77.8763 81.637 77.9766 81.2588L77.9902 81.2451H79.2344V81.2588C79.125 81.8604 78.888 82.3844 78.5234 82.8311C78.1589 83.2731 77.6963 83.6172 77.1357 83.8633C76.5798 84.1094 75.9508 84.2324 75.249 84.2324ZM82.3926 80.7051L82.3242 78.9277H82.6387L86.959 74.1357H88.5039L84.4229 78.5449L83.8486 79.0986L82.3926 80.7051ZM81.2988 84V74.1357H82.5293V84H81.2988ZM87.2734 84L83.5889 79.085L84.4365 78.2305L88.8662 84H87.2734ZM97.6982 84.2324C96.9782 84.2324 96.3493 84.1162 95.8115 83.8838C95.2783 83.6468 94.8545 83.3232 94.54 82.9131C94.2301 82.4984 94.0501 82.0244 94 81.4912L93.9932 81.416H95.2236L95.2305 81.4912C95.2624 81.8193 95.3877 82.1042 95.6064 82.3457C95.8298 82.5827 96.126 82.7673 96.4951 82.8994C96.8688 83.0316 97.2926 83.0977 97.7666 83.0977C98.2132 83.0977 98.6097 83.027 98.9561 82.8857C99.307 82.7399 99.5827 82.5394 99.7832 82.2842C99.9837 82.029 100.084 81.735 100.084 81.4023V81.3955C100.084 80.9854 99.9336 80.6413 99.6328 80.3633C99.332 80.0807 98.8421 79.8643 98.1631 79.7139L97.0693 79.4746C96.0804 79.2559 95.3604 78.9186 94.9092 78.4629C94.4626 78.0026 94.2393 77.4147 94.2393 76.6992V76.6924C94.2438 76.1455 94.3919 75.6624 94.6836 75.2432C94.9798 74.8239 95.3877 74.4958 95.9072 74.2588C96.4313 74.0218 97.0329 73.9033 97.7119 73.9033C98.3682 73.9033 98.9492 74.0218 99.4551 74.2588C99.9609 74.4912 100.362 74.8057 100.658 75.2021C100.959 75.5986 101.125 76.043 101.157 76.5352L101.164 76.6309H99.9336L99.9199 76.542C99.8743 76.2503 99.7559 75.9928 99.5645 75.7695C99.373 75.5417 99.1178 75.3617 98.7988 75.2295C98.4798 75.0973 98.1061 75.0335 97.6777 75.0381C97.2676 75.0381 96.8984 75.1019 96.5703 75.2295C96.2422 75.3571 95.9801 75.5417 95.7842 75.7832C95.5928 76.0202 95.4971 76.3118 95.4971 76.6582V76.665C95.4971 77.057 95.6429 77.3874 95.9346 77.6562C96.2262 77.9251 96.707 78.1325 97.377 78.2783L98.4707 78.5244C99.1589 78.6748 99.7126 78.8708 100.132 79.1123C100.551 79.3538 100.856 79.6501 101.048 80.001C101.244 80.3473 101.342 80.7575 101.342 81.2314V81.2383C101.342 81.8535 101.191 82.3844 100.891 82.8311C100.59 83.2777 100.166 83.624 99.6191 83.8701C99.0723 84.1117 98.432 84.2324 97.6982 84.2324ZM103.393 84V74.1357H104.623V84H103.393ZM107.139 84V74.1357H108.567L111.944 82.3662H112.054L115.431 74.1357H116.859V84H115.711V76.4668H115.109L116.49 74.4092L112.519 84H111.479L107.515 74.4092L108.889 76.4668H108.287V84H107.139ZM119.99 80.4795V79.3857H122.779C123.486 79.3857 124.033 79.2035 124.42 78.8389C124.807 78.4697 125.001 77.9616 125.001 77.3145V77.3008C125.001 76.6491 124.807 76.141 124.42 75.7764C124.033 75.4118 123.486 75.2295 122.779 75.2295H119.99V74.1357H123.094C123.714 74.1357 124.26 74.2679 124.734 74.5322C125.208 74.7965 125.58 75.1657 125.849 75.6396C126.122 76.1136 126.259 76.6628 126.259 77.2871V77.3008C126.259 77.9251 126.122 78.4766 125.849 78.9551C125.58 79.4336 125.208 79.8073 124.734 80.0762C124.26 80.3451 123.714 80.4795 123.094 80.4795H119.99ZM119.375 84V74.1357H120.605V84H119.375ZM128.275 84V74.1357H129.506V82.8926H134.264V84H128.275ZM136.232 84V74.1357H142.344V75.2432H137.463V78.4082H142.091V79.502H137.463V82.8926H142.344V84H136.232ZM147.806 84.2324C147.086 84.2324 146.457 84.1162 145.919 83.8838C145.386 83.6468 144.962 83.3232 144.647 82.9131C144.338 82.4984 144.158 82.0244 144.107 81.4912L144.101 81.416H145.331L145.338 81.4912C145.37 81.8193 145.495 82.1042 145.714 82.3457C145.937 82.5827 146.233 82.7673 146.603 82.8994C146.976 83.0316 147.4 83.0977 147.874 83.0977C148.321 83.0977 148.717 83.027 149.063 82.8857C149.414 82.7399 149.69 82.5394 149.891 82.2842C150.091 82.029 150.191 81.735 150.191 81.4023V81.3955C150.191 80.9854 150.041 80.6413 149.74 80.3633C149.439 80.0807 148.95 79.8643 148.271 79.7139L147.177 79.4746C146.188 79.2559 145.468 78.9186 145.017 78.4629C144.57 78.0026 144.347 77.4147 144.347 76.6992V76.6924C144.351 76.1455 144.499 75.6624 144.791 75.2432C145.087 74.8239 145.495 74.4958 146.015 74.2588C146.539 74.0218 147.14 73.9033 147.819 73.9033C148.476 73.9033 149.057 74.0218 149.562 74.2588C150.068 74.4912 150.469 74.8057 150.766 75.2021C151.066 75.5986 151.233 76.043 151.265 76.5352L151.271 76.6309H150.041L150.027 76.542C149.982 76.2503 149.863 75.9928 149.672 75.7695C149.48 75.5417 149.225 75.3617 148.906 75.2295C148.587 75.0973 148.214 75.0335 147.785 75.0381C147.375 75.0381 147.006 75.1019 146.678 75.2295C146.35 75.3571 146.088 75.5417 145.892 75.7832C145.7 76.0202 145.604 76.3118 145.604 76.6582V76.665C145.604 77.057 145.75 77.3874 146.042 77.6562C146.334 77.9251 146.814 78.1325 147.484 78.2783L148.578 78.5244C149.266 78.6748 149.82 78.8708 150.239 79.1123C150.659 79.3538 150.964 79.6501 151.155 80.001C151.351 80.3473 151.449 80.7575 151.449 81.2314V81.2383C151.449 81.8535 151.299 82.3844 150.998 82.8311C150.697 83.2777 150.273 83.624 149.727 83.8701C149.18 84.1117 148.539 84.2324 147.806 84.2324ZM157.438 84V74.1357H163.549V75.2432H158.668V78.4082H163.296V79.502H158.668V82.8926H163.549V84H157.438ZM168.929 84L172.565 74.1357H173.509V75.7285H173.119L170.221 84H168.929ZM170.576 81.1768L170.959 80.1309H175.416L175.799 81.1768H170.576ZM176.127 84L173.229 75.7285V74.1357H173.782L177.419 84H176.127ZM182.382 84.2324C181.662 84.2324 181.033 84.1162 180.495 83.8838C179.962 83.6468 179.538 83.3232 179.224 82.9131C178.914 82.4984 178.734 82.0244 178.684 81.4912L178.677 81.416H179.907L179.914 81.4912C179.946 81.8193 180.071 82.1042 180.29 82.3457C180.513 82.5827 180.81 82.7673 181.179 82.8994C181.552 83.0316 181.976 83.0977 182.45 83.0977C182.897 83.0977 183.293 83.027 183.64 82.8857C183.991 82.7399 184.266 82.5394 184.467 82.2842C184.667 82.029 184.768 81.735 184.768 81.4023V81.3955C184.768 80.9854 184.617 80.6413 184.316 80.3633C184.016 80.0807 183.526 79.8643 182.847 79.7139L181.753 79.4746C180.764 79.2559 180.044 78.9186 179.593 78.4629C179.146 78.0026 178.923 77.4147 178.923 76.6992V76.6924C178.927 76.1455 179.076 75.6624 179.367 75.2432C179.663 74.8239 180.071 74.4958 180.591 74.2588C181.115 74.0218 181.716 73.9033 182.396 73.9033C183.052 73.9033 183.633 74.0218 184.139 74.2588C184.645 74.4912 185.046 74.8057 185.342 75.2021C185.643 75.5986 185.809 76.043 185.841 76.5352L185.848 76.6309H184.617L184.604 76.542C184.558 76.2503 184.439 75.9928 184.248 75.7695C184.057 75.5417 183.801 75.3617 183.482 75.2295C183.163 75.0973 182.79 75.0335 182.361 75.0381C181.951 75.0381 181.582 75.1019 181.254 75.2295C180.926 75.3571 180.664 75.5417 180.468 75.7832C180.276 76.0202 180.181 76.3118 180.181 76.6582V76.665C180.181 77.057 180.326 77.3874 180.618 77.6562C180.91 77.9251 181.391 78.1325 182.061 78.2783L183.154 78.5244C183.842 78.6748 184.396 78.8708 184.815 79.1123C185.235 79.3538 185.54 79.6501 185.731 80.001C185.927 80.3473 186.025 80.7575 186.025 81.2314V81.2383C186.025 81.8535 185.875 82.3844 185.574 82.8311C185.273 83.2777 184.85 83.624 184.303 83.8701C183.756 84.1117 183.116 84.2324 182.382 84.2324ZM191.31 84.2324C190.59 84.2324 189.961 84.1162 189.423 83.8838C188.89 83.6468 188.466 83.3232 188.151 82.9131C187.841 82.4984 187.661 82.0244 187.611 81.4912L187.604 81.416H188.835L188.842 81.4912C188.874 81.8193 188.999 82.1042 189.218 82.3457C189.441 82.5827 189.737 82.7673 190.106 82.8994C190.48 83.0316 190.904 83.0977 191.378 83.0977C191.825 83.0977 192.221 83.027 192.567 82.8857C192.918 82.7399 193.194 82.5394 193.395 82.2842C193.595 82.029 193.695 81.735 193.695 81.4023V81.3955C193.695 80.9854 193.545 80.6413 193.244 80.3633C192.943 80.0807 192.453 79.8643 191.774 79.7139L190.681 79.4746C189.692 79.2559 188.972 78.9186 188.521 78.4629C188.074 78.0026 187.851 77.4147 187.851 76.6992V76.6924C187.855 76.1455 188.003 75.6624 188.295 75.2432C188.591 74.8239 188.999 74.4958 189.519 74.2588C190.043 74.0218 190.644 73.9033 191.323 73.9033C191.979 73.9033 192.561 74.0218 193.066 74.2588C193.572 74.4912 193.973 74.8057 194.27 75.2021C194.57 75.5986 194.737 76.043 194.769 76.5352L194.775 76.6309H193.545L193.531 76.542C193.486 76.2503 193.367 75.9928 193.176 75.7695C192.984 75.5417 192.729 75.3617 192.41 75.2295C192.091 75.0973 191.717 75.0335 191.289 75.0381C190.879 75.0381 190.51 75.1019 190.182 75.2295C189.854 75.3571 189.591 75.5417 189.396 75.7832C189.204 76.0202 189.108 76.3118 189.108 76.6582V76.665C189.108 77.057 189.254 77.3874 189.546 77.6562C189.838 77.9251 190.318 78.1325 190.988 78.2783L192.082 78.5244C192.77 78.6748 193.324 78.8708 193.743 79.1123C194.162 79.3538 194.468 79.6501 194.659 80.001C194.855 80.3473 194.953 80.7575 194.953 81.2314V81.2383C194.953 81.8535 194.803 82.3844 194.502 82.8311C194.201 83.2777 193.777 83.624 193.23 83.8701C192.684 84.1117 192.043 84.2324 191.31 84.2324ZM197.004 84V74.1357H203.115V75.2432H198.234V78.4082H202.862V79.502H198.234V82.8926H203.115V84H197.004ZM205.344 84V74.1357H209.11C209.744 74.1357 210.295 74.2588 210.765 74.5049C211.239 74.7464 211.605 75.0859 211.865 75.5234C212.125 75.9609 212.255 76.4759 212.255 77.0684V77.082C212.255 77.7656 212.079 78.3581 211.729 78.8594C211.378 79.3607 210.892 79.7093 210.272 79.9053L212.556 84H211.113L209.001 80.0967C208.992 80.0967 208.98 80.0967 208.967 80.0967C208.953 80.0967 208.942 80.0967 208.933 80.0967H206.574V84H205.344ZM206.574 79.0029H209.001C209.634 79.0029 210.122 78.8411 210.464 78.5176C210.81 78.1895 210.983 77.7246 210.983 77.123V77.1094C210.983 76.5215 210.803 76.0612 210.443 75.7285C210.083 75.3958 209.584 75.2295 208.946 75.2295H206.574V79.0029ZM217.054 84V75.2432H213.875V74.1357H221.463V75.2432H218.284V84H217.054ZM223.363 84V74.1357H224.594V84H223.363ZM229.96 84L226.323 74.1357H227.615L230.514 82.4072H230.623L233.521 74.1357H234.813L231.177 84H229.96ZM240.344 84.2324C239.4 84.2324 238.591 84.0228 237.917 83.6035C237.243 83.1797 236.723 82.5804 236.358 81.8057C235.998 81.0309 235.818 80.1195 235.818 79.0713V79.0576C235.818 78.0003 236.001 77.0866 236.365 76.3164C236.734 75.5462 237.256 74.9515 237.931 74.5322C238.61 74.113 239.414 73.9033 240.344 73.9033C241.278 73.9033 242.082 74.113 242.757 74.5322C243.436 74.9515 243.958 75.5485 244.322 76.3232C244.687 77.0934 244.869 78.0049 244.869 79.0576V79.0713C244.869 80.1195 244.687 81.0309 244.322 81.8057C243.962 82.5758 243.443 83.1729 242.764 83.5967C242.089 84.0205 241.283 84.2324 240.344 84.2324ZM240.344 83.0977C241.018 83.0977 241.599 82.9313 242.087 82.5986C242.575 82.266 242.951 81.7988 243.215 81.1973C243.479 80.5911 243.611 79.8825 243.611 79.0713V79.0576C243.611 78.2373 243.479 77.5264 243.215 76.9248C242.951 76.3232 242.575 75.8584 242.087 75.5303C241.599 75.2021 241.018 75.0381 240.344 75.0381C239.674 75.0381 239.095 75.2021 238.607 75.5303C238.12 75.8584 237.742 76.3232 237.473 76.9248C237.208 77.5264 237.076 78.2373 237.076 79.0576V79.0713C237.076 79.8825 237.206 80.5911 237.466 81.1973C237.726 81.7988 238.099 82.266 238.587 82.5986C239.075 82.9313 239.66 83.0977 240.344 83.0977Z" fill="black"/>
<path d="M31 64L201 63.5" stroke="#00B288"/>
<defs>
<filter id="filter0_d_31_12" x="0.0999985" y="14.95" width="273.532" height="61.8" filterUnits="userSpaceOnUse" color-interpolation-filters="sRGB">
<feFlood flood-opacity="0" result="BackgroundImageFix"/>
<feColorMatrix in="SourceAlpha" type="matrix" values="0 0 0 0 0 0 0 0 0 0 0 0 0 0 0 0 0 0 127 0" result="hardAlpha"/>
<feOffset dy="4"/>
<feGaussianBlur stdDeviation="2"/>
<feComposite in2="hardAlpha" operator="out"/>
<feColorMatrix type="matrix" values="0 0 0 0 0 0 0 0 0 0 0 0 0 0 0 0 0 0 0.25 0"/>
<feBlend mode="normal" in2="BackgroundImageFix" result="effect1_dropShadow_31_12"/>
<feBlend mode="normal" in="SourceGraphic" in2="effect1_dropShadow_31_12" result="shape"/>
</filter>
<filter id="filter1_i_31_12" x="158" y="13" width="12" height="16" filterUnits="userSpaceOnUse" color-interpolation-filters="sRGB">
<feFlood flood-opacity="0" result="BackgroundImageFix"/>
<feBlend mode="normal" in="SourceGraphic" in2="BackgroundImageFix" result="shape"/>
<feColorMatrix in="SourceAlpha" type="matrix" values="0 0 0 0 0 0 0 0 0 0 0 0 0 0 0 0 0 0 127 0" result="hardAlpha"/>
<feOffset dy="4"/>
<feGaussianBlur stdDeviation="2"/>
<feComposite in2="hardAlpha" operator="arithmetic" k2="-1" k3="1"/>
<feColorMatrix type="matrix" values="0 0 0 0 0 0 0 0 0 0 0 0 0 0 0 0 0 0 0.25 0"/>
<feBlend mode="normal" in2="shape" result="effect1_innerShadow_31_12"/>
</filter>
</defs>
</svg>
