<svg width="274" height="79" viewBox="0 0 274 79" fill="none" xmlns="http://www.w3.org/2000/svg">
<g filter="url(#filter0_d_26_5)">
<path d="M26.95 19.9V26.75H12.65V34.15H23.35V40.8H12.65V55H4.1V19.9H26.95ZM57.7437 40.6C57.7437 41.4 57.6938 42.2333 57.5938 43.1H38.2438C38.3771 44.8333 38.9271 46.1667 39.8938 47.1C40.8938 48 42.1104 48.45 43.5438 48.45C45.6771 48.45 47.1604 47.55 47.9938 45.75H57.0938C56.6271 47.5833 55.7771 49.2333 54.5438 50.7C53.3438 52.1667 51.8271 53.3167 49.9938 54.15C48.1604 54.9833 46.1104 55.4 43.8438 55.4C41.1104 55.4 38.6771 54.8167 36.5438 53.65C34.4104 52.4833 32.7438 50.8167 31.5438 48.65C30.3438 46.4833 29.7438 43.95 29.7438 41.05C29.7438 38.15 30.3271 35.6167 31.4938 33.45C32.6938 31.2833 34.3604 29.6167 36.4938 28.45C38.6271 27.2833 41.0771 26.7 43.8438 26.7C46.5438 26.7 48.9438 27.2667 51.0438 28.4C53.1438 29.5333 54.7771 31.15 55.9438 33.25C57.1438 35.35 57.7437 37.8 57.7437 40.6ZM48.9938 38.35C48.9938 36.8833 48.4938 35.7167 47.4938 34.85C46.4938 33.9833 45.2438 33.55 43.7438 33.55C42.3104 33.55 41.0938 33.9667 40.0938 34.8C39.1271 35.6333 38.5271 36.8167 38.2938 38.35H48.9938ZM88.5543 40.6C88.5543 41.4 88.5043 42.2333 88.4043 43.1H69.0543C69.1876 44.8333 69.7376 46.1667 70.7043 47.1C71.7043 48 72.921 48.45 74.3543 48.45C76.4876 48.45 77.971 47.55 78.8043 45.75H87.9043C87.4376 47.5833 86.5876 49.2333 85.3543 50.7C84.1543 52.1667 82.6376 53.3167 80.8043 54.15C78.971 54.9833 76.921 55.4 74.6543 55.4C71.921 55.4 69.4876 54.8167 67.3543 53.65C65.221 52.4833 63.5543 50.8167 62.3543 48.65C61.1543 46.4833 60.5543 43.95 60.5543 41.05C60.5543 38.15 61.1376 35.6167 62.3043 33.45C63.5043 31.2833 65.171 29.6167 67.3043 28.45C69.4376 27.2833 71.8876 26.7 74.6543 26.7C77.3543 26.7 79.7543 27.2667 81.8543 28.4C83.9543 29.5333 85.5876 31.15 86.7543 33.25C87.9543 35.35 88.5543 37.8 88.5543 40.6ZM79.8043 38.35C79.8043 36.8833 79.3043 35.7167 78.3043 34.85C77.3043 33.9833 76.0543 33.55 74.5543 33.55C73.121 33.55 71.9043 33.9667 70.9043 34.8C69.9376 35.6333 69.3376 36.8167 69.1043 38.35H79.8043ZM91.3648 41C91.3648 38.1333 91.8982 35.6167 92.9648 33.45C94.0648 31.2833 95.5482 29.6167 97.4148 28.45C99.2815 27.2833 101.365 26.7 103.665 26.7C105.498 26.7 107.165 27.0833 108.665 27.85C110.198 28.6167 111.398 29.65 112.265 30.95V18H120.815V55H112.265V51C111.465 52.3333 110.315 53.4 108.815 54.2C107.348 55 105.632 55.4 103.665 55.4C101.365 55.4 99.2815 54.8167 97.4148 53.65C95.5482 52.45 94.0648 50.7667 92.9648 48.6C91.8982 46.4 91.3648 43.8667 91.3648 41ZM112.265 41.05C112.265 38.9167 111.665 37.2333 110.465 36C109.298 34.7667 107.865 34.15 106.165 34.15C104.465 34.15 103.015 34.7667 101.815 36C100.648 37.2 100.065 38.8667 100.065 41C100.065 43.1333 100.648 44.8333 101.815 46.1C103.015 47.3333 104.465 47.95 106.165 47.95C107.865 47.95 109.298 47.3333 110.465 46.1C111.665 44.8667 112.265 43.1833 112.265 41.05ZM148.25 37C150.284 37.4333 151.917 38.45 153.15 40.05C154.384 41.6167 155 43.4167 155 45.45C155 48.3833 153.967 50.7167 151.9 52.45C149.867 54.15 147.017 55 143.35 55H127V19.9H142.8C146.367 19.9 149.15 20.7167 151.15 22.35C153.184 23.9833 154.2 26.2 154.2 29C154.2 31.0667 153.65 32.7833 152.55 34.15C151.484 35.5167 150.05 36.4667 148.25 37ZM135.55 34.1H141.15C142.55 34.1 143.617 33.8 144.35 33.2C145.117 32.5667 145.5 31.65 145.5 30.45C145.5 29.25 145.117 28.3333 144.35 27.7C143.617 27.0667 142.55 26.75 141.15 26.75H135.55V34.1ZM141.85 48.1C143.284 48.1 144.384 47.7833 145.15 47.15C145.95 46.4833 146.35 45.5333 146.35 44.3C146.35 43.0667 145.934 42.1 145.1 41.4C144.3 40.7 143.184 40.35 141.75 40.35H135.55V48.1H141.85ZM164.259 24.2C162.759 24.2 161.526 23.7667 160.559 22.9C159.626 22 159.159 20.9 159.159 19.6C159.159 18.2667 159.626 17.1667 160.559 16.3C161.526 15.4 162.759 14.95 164.259 14.95C165.726 14.95 166.926 15.4 167.859 16.3C168.826 17.1667 169.309 18.2667 169.309 19.6C169.309 20.9 168.826 22 167.859 22.9C166.926 23.7667 165.726 24.2 164.259 24.2ZM168.509 27.1V55H159.959V27.1H168.509ZM191.705 26.8C194.972 26.8 197.572 27.8667 199.505 30C201.472 32.1 202.455 35 202.455 38.7V55H193.955V39.85C193.955 37.9833 193.472 36.5333 192.505 35.5C191.539 34.4667 190.239 33.95 188.605 33.95C186.972 33.95 185.672 34.4667 184.705 35.5C183.739 36.5333 183.255 37.9833 183.255 39.85V55H174.705V27.1H183.255V30.8C184.122 29.5667 185.289 28.6 186.755 27.9C188.222 27.1667 189.872 26.8 191.705 26.8ZM218.997 26.7C220.964 26.7 222.68 27.1 224.147 27.9C225.647 28.7 226.797 29.75 227.597 31.05V27.1H236.147V54.95C236.147 57.5167 235.63 59.8333 234.597 61.9C233.597 64 232.047 65.6667 229.947 66.9C227.88 68.1333 225.297 68.75 222.197 68.75C218.064 68.75 214.714 67.7667 212.147 65.8C209.58 63.8667 208.114 61.2333 207.747 57.9H216.197C216.464 58.9667 217.097 59.8 218.097 60.4C219.097 61.0333 220.33 61.35 221.797 61.35C223.564 61.35 224.964 60.8333 225.997 59.8C227.064 58.8 227.597 57.1833 227.597 54.95V51C226.764 52.3 225.614 53.3667 224.147 54.2C222.68 55 220.964 55.4 218.997 55.4C216.697 55.4 214.614 54.8167 212.747 53.65C210.88 52.45 209.397 50.7667 208.297 48.6C207.23 46.4 206.697 43.8667 206.697 41C206.697 38.1333 207.23 35.6167 208.297 33.45C209.397 31.2833 210.88 29.6167 212.747 28.45C214.614 27.2833 216.697 26.7 218.997 26.7ZM227.597 41.05C227.597 38.9167 226.997 37.2333 225.797 36C224.63 34.7667 223.197 34.15 221.497 34.15C219.797 34.15 218.347 34.7667 217.147 36C215.98 37.2 215.397 38.8667 215.397 41C215.397 43.1333 215.98 44.8333 217.147 46.1C218.347 47.3333 219.797 47.95 221.497 47.95C223.197 47.95 224.63 47.3333 225.797 46.1C226.997 44.8667 227.597 43.1833 227.597 41.05ZM255.032 55.4C252.299 55.4 249.832 54.8167 247.632 53.65C245.466 52.4833 243.749 50.8167 242.482 48.65C241.249 46.4833 240.632 43.95 240.632 41.05C240.632 38.1833 241.266 35.6667 242.532 33.5C243.799 31.3 245.532 29.6167 247.732 28.45C249.932 27.2833 252.399 26.7 255.132 26.7C257.866 26.7 260.332 27.2833 262.532 28.45C264.732 29.6167 266.466 31.3 267.732 33.5C268.999 35.6667 269.632 38.1833 269.632 41.05C269.632 43.9167 268.982 46.45 267.682 48.65C266.416 50.8167 264.666 52.4833 262.432 53.65C260.232 54.8167 257.766 55.4 255.032 55.4ZM255.032 48C256.666 48 258.049 47.4 259.182 46.2C260.349 45 260.932 43.2833 260.932 41.05C260.932 38.8167 260.366 37.1 259.232 35.9C258.132 34.7 256.766 34.1 255.132 34.1C253.466 34.1 252.082 34.7 250.982 35.9C249.882 37.0667 249.332 38.7833 249.332 41.05C249.332 43.2833 249.866 45 250.932 46.2C252.032 47.4 253.399 48 255.032 48Z" fill="#242D3D"/>
</g>
<g filter="url(#filter1_i_26_5)">
<path d="M170 19C170 22.3137 167 25 164 25C160.686 25 158 22.3137 158 19C158 15.6863 160.686 13 164 13C167.314 13 170 15.6863 170 19Z" fill="#00B288"/>
</g>
<path d="M7.6 68.324H6.22V74H5.128V68.324H4.276V67.424H5.128V66.956C5.128 66.22 5.316 65.684 5.692 65.348C6.076 65.004 6.688 64.832 7.528 64.832V65.744C7.048 65.744 6.708 65.84 6.508 66.032C6.316 66.216 6.22 66.524 6.22 66.956V67.424H7.6V68.324ZM14.8732 70.46C14.8732 70.668 14.8612 70.888 14.8372 71.12H9.58122C9.62122 71.768 9.84122 72.276 10.2412 72.644C10.6492 73.004 11.1412 73.184 11.7172 73.184C12.1892 73.184 12.5812 73.076 12.8932 72.86C13.2132 72.636 13.4372 72.34 13.5652 71.972H14.7412C14.5652 72.604 14.2132 73.12 13.6852 73.52C13.1572 73.912 12.5012 74.108 11.7172 74.108C11.0932 74.108 10.5332 73.968 10.0372 73.688C9.54922 73.408 9.16522 73.012 8.88522 72.5C8.60522 71.98 8.46522 71.38 8.46522 70.7C8.46522 70.02 8.60122 69.424 8.87322 68.912C9.14522 68.4 9.52522 68.008 10.0132 67.736C10.5092 67.456 11.0772 67.316 11.7172 67.316C12.3412 67.316 12.8932 67.452 13.3732 67.724C13.8532 67.996 14.2212 68.372 14.4772 68.852C14.7412 69.324 14.8732 69.86 14.8732 70.46ZM13.7452 70.232C13.7452 69.816 13.6532 69.46 13.4692 69.164C13.2852 68.86 13.0332 68.632 12.7132 68.48C12.4012 68.32 12.0532 68.24 11.6692 68.24C11.1172 68.24 10.6452 68.416 10.2532 68.768C9.86922 69.12 9.64922 69.608 9.59322 70.232H13.7452ZM22.3146 70.46C22.3146 70.668 22.3026 70.888 22.2786 71.12H17.0226C17.0626 71.768 17.2826 72.276 17.6826 72.644C18.0906 73.004 18.5826 73.184 19.1586 73.184C19.6306 73.184 20.0226 73.076 20.3346 72.86C20.6546 72.636 20.8786 72.34 21.0066 71.972H22.1826C22.0066 72.604 21.6546 73.12 21.1266 73.52C20.5986 73.912 19.9426 74.108 19.1586 74.108C18.5346 74.108 17.9746 73.968 17.4786 73.688C16.9906 73.408 16.6066 73.012 16.3266 72.5C16.0466 71.98 15.9066 71.38 15.9066 70.7C15.9066 70.02 16.0426 69.424 16.3146 68.912C16.5866 68.4 16.9666 68.008 17.4546 67.736C17.9506 67.456 18.5186 67.316 19.1586 67.316C19.7826 67.316 20.3346 67.452 20.8146 67.724C21.2946 67.996 21.6626 68.372 21.9186 68.852C22.1826 69.324 22.3146 69.86 22.3146 70.46ZM21.1866 70.232C21.1866 69.816 21.0946 69.46 20.9106 69.164C20.7266 68.86 20.4746 68.632 20.1546 68.48C19.8426 68.32 19.4946 68.24 19.1106 68.24C18.5586 68.24 18.0866 68.416 17.6946 68.768C17.3106 69.12 17.0906 69.608 17.0346 70.232H21.1866ZM23.348 70.688C23.348 70.016 23.484 69.428 23.756 68.924C24.028 68.412 24.4 68.016 24.872 67.736C25.352 67.456 25.888 67.316 26.48 67.316C26.992 67.316 27.468 67.436 27.908 67.676C28.348 67.908 28.684 68.216 28.916 68.6V65.12H30.02V74H28.916V72.764C28.7 73.156 28.38 73.48 27.956 73.736C27.532 73.984 27.036 74.108 26.468 74.108C25.884 74.108 25.352 73.964 24.872 73.676C24.4 73.388 24.028 72.984 23.756 72.464C23.484 71.944 23.348 71.352 23.348 70.688ZM28.916 70.7C28.916 70.204 28.816 69.772 28.616 69.404C28.416 69.036 28.144 68.756 27.8 68.564C27.464 68.364 27.092 68.264 26.684 68.264C26.276 68.264 25.904 68.36 25.568 68.552C25.232 68.744 24.964 69.024 24.764 69.392C24.564 69.76 24.464 70.192 24.464 70.688C24.464 71.192 24.564 71.632 24.764 72.008C24.964 72.376 25.232 72.66 25.568 72.86C25.904 73.052 26.276 73.148 26.684 73.148C27.092 73.148 27.464 73.052 27.8 72.86C28.144 72.66 28.416 72.376 28.616 72.008C28.816 71.632 28.916 71.196 28.916 70.7ZM32.9574 68.648C33.1814 68.256 33.5094 67.936 33.9414 67.688C34.3734 67.44 34.8654 67.316 35.4174 67.316C36.0094 67.316 36.5414 67.456 37.0134 67.736C37.4854 68.016 37.8574 68.412 38.1294 68.924C38.4014 69.428 38.5374 70.016 38.5374 70.688C38.5374 71.352 38.4014 71.944 38.1294 72.464C37.8574 72.984 37.4814 73.388 37.0014 73.676C36.5294 73.964 36.0014 74.108 35.4174 74.108C34.8494 74.108 34.3494 73.984 33.9174 73.736C33.4934 73.488 33.1734 73.172 32.9574 72.788V74H31.8654V65.12H32.9574V68.648ZM37.4214 70.688C37.4214 70.192 37.3214 69.76 37.1214 69.392C36.9214 69.024 36.6494 68.744 36.3054 68.552C35.9694 68.36 35.5974 68.264 35.1894 68.264C34.7894 68.264 34.4174 68.364 34.0734 68.564C33.7374 68.756 33.4654 69.04 33.2574 69.416C33.0574 69.784 32.9574 70.212 32.9574 70.7C32.9574 71.196 33.0574 71.632 33.2574 72.008C33.4654 72.376 33.7374 72.66 34.0734 72.86C34.4174 73.052 34.7894 73.148 35.1894 73.148C35.5974 73.148 35.9694 73.052 36.3054 72.86C36.6494 72.66 36.9214 72.376 37.1214 72.008C37.3214 71.632 37.4214 71.192 37.4214 70.688ZM39.5668 70.688C39.5668 70.016 39.7028 69.428 39.9748 68.924C40.2468 68.412 40.6188 68.016 41.0908 67.736C41.5708 67.456 42.1028 67.316 42.6868 67.316C43.2628 67.316 43.7628 67.44 44.1868 67.688C44.6108 67.936 44.9268 68.248 45.1348 68.624V67.424H46.2388V74H45.1348V72.776C44.9188 73.16 44.5948 73.48 44.1628 73.736C43.7388 73.984 43.2428 74.108 42.6748 74.108C42.0908 74.108 41.5628 73.964 41.0908 73.676C40.6188 73.388 40.2468 72.984 39.9748 72.464C39.7028 71.944 39.5668 71.352 39.5668 70.688ZM45.1348 70.7C45.1348 70.204 45.0348 69.772 44.8348 69.404C44.6348 69.036 44.3628 68.756 44.0188 68.564C43.6828 68.364 43.3108 68.264 42.9028 68.264C42.4948 68.264 42.1228 68.36 41.7868 68.552C41.4508 68.744 41.1828 69.024 40.9828 69.392C40.7828 69.76 40.6828 70.192 40.6828 70.688C40.6828 71.192 40.7828 71.632 40.9828 72.008C41.1828 72.376 41.4508 72.66 41.7868 72.86C42.1228 73.052 42.4948 73.148 42.9028 73.148C43.3108 73.148 43.6828 73.052 44.0188 72.86C44.3628 72.66 44.6348 72.376 44.8348 72.008C45.0348 71.632 45.1348 71.196 45.1348 70.7ZM47.6762 70.7C47.6762 70.02 47.8122 69.428 48.0842 68.924C48.3562 68.412 48.7322 68.016 49.2122 67.736C49.7002 67.456 50.2562 67.316 50.8802 67.316C51.6882 67.316 52.3522 67.512 52.8722 67.904C53.4002 68.296 53.7482 68.84 53.9162 69.536H52.7402C52.6282 69.136 52.4082 68.82 52.0802 68.588C51.7602 68.356 51.3602 68.24 50.8802 68.24C50.2562 68.24 49.7522 68.456 49.3682 68.888C48.9842 69.312 48.7922 69.916 48.7922 70.7C48.7922 71.492 48.9842 72.104 49.3682 72.536C49.7522 72.968 50.2562 73.184 50.8802 73.184C51.3602 73.184 51.7602 73.072 52.0802 72.848C52.4002 72.624 52.6202 72.304 52.7402 71.888H53.9162C53.7402 72.56 53.3882 73.1 52.8602 73.508C52.3322 73.908 51.6722 74.108 50.8802 74.108C50.2562 74.108 49.7002 73.968 49.2122 73.688C48.7322 73.408 48.3562 73.012 48.0842 72.5C47.8122 71.988 47.6762 71.388 47.6762 70.7ZM59.0452 74L56.4652 71.096V74H55.3732V65.12H56.4652V70.34L58.9972 67.424H60.5212L57.4252 70.7L60.5332 74H59.0452ZM67.0762 74.108C66.5722 74.108 66.1202 74.024 65.7202 73.856C65.3202 73.68 65.0042 73.44 64.7722 73.136C64.5402 72.824 64.4122 72.468 64.3882 72.068H65.5162C65.5482 72.396 65.7002 72.664 65.9722 72.872C66.2522 73.08 66.6162 73.184 67.0642 73.184C67.4802 73.184 67.8082 73.092 68.0482 72.908C68.2882 72.724 68.4082 72.492 68.4082 72.212C68.4082 71.924 68.2802 71.712 68.0242 71.576C67.7682 71.432 67.3722 71.292 66.8362 71.156C66.3482 71.028 65.9482 70.9 65.6362 70.772C65.3322 70.636 65.0682 70.44 64.8442 70.184C64.6282 69.92 64.5202 69.576 64.5202 69.152C64.5202 68.816 64.6202 68.508 64.8202 68.228C65.0202 67.948 65.3042 67.728 65.6722 67.568C66.0402 67.4 66.4602 67.316 66.9322 67.316C67.6602 67.316 68.2482 67.5 68.6962 67.868C69.1442 68.236 69.3842 68.74 69.4162 69.38H68.3242C68.3002 69.036 68.1602 68.76 67.9042 68.552C67.6562 68.344 67.3202 68.24 66.8962 68.24C66.5042 68.24 66.1922 68.324 65.9602 68.492C65.7282 68.66 65.6122 68.88 65.6122 69.152C65.6122 69.368 65.6802 69.548 65.8162 69.692C65.9602 69.828 66.1362 69.94 66.3442 70.028C66.5602 70.108 66.8562 70.2 67.2322 70.304C67.7042 70.432 68.0882 70.56 68.3842 70.688C68.6802 70.808 68.9322 70.992 69.1402 71.24C69.3562 71.488 69.4682 71.812 69.4762 72.212C69.4762 72.572 69.3762 72.896 69.1762 73.184C68.9762 73.472 68.6922 73.7 68.3242 73.868C67.9642 74.028 67.5482 74.108 67.0762 74.108ZM71.5818 66.356C71.3738 66.356 71.1978 66.284 71.0538 66.14C70.9098 65.996 70.8378 65.82 70.8378 65.612C70.8378 65.404 70.9098 65.228 71.0538 65.084C71.1978 64.94 71.3738 64.868 71.5818 64.868C71.7818 64.868 71.9498 64.94 72.0858 65.084C72.2298 65.228 72.3018 65.404 72.3018 65.612C72.3018 65.82 72.2298 65.996 72.0858 66.14C71.9498 66.284 71.7818 66.356 71.5818 66.356ZM72.1098 67.424V74H71.0178V67.424H72.1098ZM81.8789 67.304C82.3909 67.304 82.8469 67.412 83.2469 67.628C83.6469 67.836 83.9629 68.152 84.1949 68.576C84.4269 69 84.5429 69.516 84.5429 70.124V74H83.4629V70.28C83.4629 69.624 83.2989 69.124 82.9709 68.78C82.6509 68.428 82.2149 68.252 81.6629 68.252C81.0949 68.252 80.6429 68.436 80.3069 68.804C79.9709 69.164 79.8029 69.688 79.8029 70.376V74H78.7229V70.28C78.7229 69.624 78.5589 69.124 78.2309 68.78C77.9109 68.428 77.4749 68.252 76.9229 68.252C76.3549 68.252 75.9029 68.436 75.5669 68.804C75.2309 69.164 75.0629 69.688 75.0629 70.376V74H73.9709V67.424H75.0629V68.372C75.2789 68.028 75.5669 67.764 75.9269 67.58C76.2949 67.396 76.6989 67.304 77.1389 67.304C77.6909 67.304 78.1789 67.428 78.6029 67.676C79.0269 67.924 79.3429 68.288 79.5509 68.768C79.7349 68.304 80.0389 67.944 80.4629 67.688C80.8869 67.432 81.3589 67.304 81.8789 67.304ZM87.4262 68.636C87.6422 68.26 87.9622 67.948 88.3862 67.7C88.8182 67.444 89.3182 67.316 89.8862 67.316C90.4702 67.316 90.9982 67.456 91.4702 67.736C91.9502 68.016 92.3262 68.412 92.5982 68.924C92.8702 69.428 93.0062 70.016 93.0062 70.688C93.0062 71.352 92.8702 71.944 92.5982 72.464C92.3262 72.984 91.9502 73.388 91.4702 73.676C90.9982 73.964 90.4702 74.108 89.8862 74.108C89.3262 74.108 88.8302 73.984 88.3982 73.736C87.9742 73.48 87.6502 73.164 87.4262 72.788V77.12H86.3342V67.424H87.4262V68.636ZM91.8902 70.688C91.8902 70.192 91.7902 69.76 91.5902 69.392C91.3902 69.024 91.1182 68.744 90.7742 68.552C90.4382 68.36 90.0662 68.264 89.6582 68.264C89.2582 68.264 88.8862 68.364 88.5422 68.564C88.2062 68.756 87.9342 69.04 87.7262 69.416C87.5262 69.784 87.4262 70.212 87.4262 70.7C87.4262 71.196 87.5262 71.632 87.7262 72.008C87.9342 72.376 88.2062 72.66 88.5422 72.86C88.8862 73.052 89.2582 73.148 89.6582 73.148C90.0662 73.148 90.4382 73.052 90.7742 72.86C91.1182 72.66 91.3902 72.376 91.5902 72.008C91.7902 71.632 91.8902 71.192 91.8902 70.688ZM95.5355 65.12V74H94.4435V65.12H95.5355ZM103.397 70.46C103.397 70.668 103.385 70.888 103.361 71.12H98.1047C98.1447 71.768 98.3647 72.276 98.7647 72.644C99.1727 73.004 99.6647 73.184 100.241 73.184C100.713 73.184 101.105 73.076 101.417 72.86C101.737 72.636 101.961 72.34 102.089 71.972H103.265C103.089 72.604 102.737 73.12 102.209 73.52C101.681 73.912 101.025 74.108 100.241 74.108C99.6167 74.108 99.0567 73.968 98.5607 73.688C98.0727 73.408 97.6887 73.012 97.4087 72.5C97.1287 71.98 96.9887 71.38 96.9887 70.7C96.9887 70.02 97.1247 69.424 97.3967 68.912C97.6687 68.4 98.0487 68.008 98.5367 67.736C99.0327 67.456 99.6007 67.316 100.241 67.316C100.865 67.316 101.417 67.452 101.897 67.724C102.377 67.996 102.745 68.372 103.001 68.852C103.265 69.324 103.397 69.86 103.397 70.46ZM102.269 70.232C102.269 69.816 102.177 69.46 101.993 69.164C101.809 68.86 101.557 68.632 101.237 68.48C100.925 68.32 100.577 68.24 100.193 68.24C99.6407 68.24 99.1687 68.416 98.7767 68.768C98.3927 69.12 98.1727 69.608 98.1167 70.232H102.269ZM107.166 74.108C106.662 74.108 106.21 74.024 105.81 73.856C105.41 73.68 105.094 73.44 104.862 73.136C104.63 72.824 104.502 72.468 104.478 72.068H105.606C105.638 72.396 105.79 72.664 106.062 72.872C106.342 73.08 106.706 73.184 107.154 73.184C107.57 73.184 107.898 73.092 108.138 72.908C108.378 72.724 108.498 72.492 108.498 72.212C108.498 71.924 108.37 71.712 108.114 71.576C107.858 71.432 107.462 71.292 106.926 71.156C106.438 71.028 106.038 70.9 105.726 70.772C105.422 70.636 105.158 70.44 104.934 70.184C104.718 69.92 104.61 69.576 104.61 69.152C104.61 68.816 104.71 68.508 104.91 68.228C105.11 67.948 105.394 67.728 105.762 67.568C106.13 67.4 106.55 67.316 107.022 67.316C107.75 67.316 108.338 67.5 108.786 67.868C109.234 68.236 109.474 68.74 109.506 69.38H108.414C108.39 69.036 108.25 68.76 107.994 68.552C107.746 68.344 107.41 68.24 106.986 68.24C106.594 68.24 106.282 68.324 106.05 68.492C105.818 68.66 105.702 68.88 105.702 69.152C105.702 69.368 105.77 69.548 105.906 69.692C106.05 69.828 106.226 69.94 106.434 70.028C106.65 70.108 106.946 70.2 107.322 70.304C107.794 70.432 108.178 70.56 108.474 70.688C108.77 70.808 109.022 70.992 109.23 71.24C109.446 71.488 109.558 71.812 109.566 72.212C109.566 72.572 109.466 72.896 109.266 73.184C109.066 73.472 108.782 73.7 108.414 73.868C108.054 74.028 107.638 74.108 107.166 74.108ZM120.307 70.46C120.307 70.668 120.295 70.888 120.271 71.12H115.015C115.055 71.768 115.275 72.276 115.675 72.644C116.083 73.004 116.575 73.184 117.151 73.184C117.623 73.184 118.015 73.076 118.327 72.86C118.647 72.636 118.871 72.34 118.999 71.972H120.175C119.999 72.604 119.647 73.12 119.119 73.52C118.591 73.912 117.935 74.108 117.151 74.108C116.527 74.108 115.967 73.968 115.471 73.688C114.983 73.408 114.599 73.012 114.319 72.5C114.039 71.98 113.899 71.38 113.899 70.7C113.899 70.02 114.035 69.424 114.307 68.912C114.579 68.4 114.959 68.008 115.447 67.736C115.943 67.456 116.511 67.316 117.151 67.316C117.775 67.316 118.327 67.452 118.807 67.724C119.287 67.996 119.655 68.372 119.911 68.852C120.175 69.324 120.307 69.86 120.307 70.46ZM119.179 70.232C119.179 69.816 119.087 69.46 118.903 69.164C118.719 68.86 118.467 68.632 118.147 68.48C117.835 68.32 117.487 68.24 117.103 68.24C116.551 68.24 116.079 68.416 115.687 68.768C115.303 69.12 115.083 69.608 115.027 70.232H119.179ZM124.539 70.688C124.539 70.016 124.675 69.428 124.947 68.924C125.219 68.412 125.591 68.016 126.063 67.736C126.543 67.456 127.075 67.316 127.659 67.316C128.235 67.316 128.735 67.44 129.159 67.688C129.583 67.936 129.899 68.248 130.107 68.624V67.424H131.211V74H130.107V72.776C129.891 73.16 129.567 73.48 129.135 73.736C128.711 73.984 128.215 74.108 127.647 74.108C127.063 74.108 126.535 73.964 126.063 73.676C125.591 73.388 125.219 72.984 124.947 72.464C124.675 71.944 124.539 71.352 124.539 70.688ZM130.107 70.7C130.107 70.204 130.007 69.772 129.807 69.404C129.607 69.036 129.335 68.756 128.991 68.564C128.655 68.364 128.283 68.264 127.875 68.264C127.467 68.264 127.095 68.36 126.759 68.552C126.423 68.744 126.155 69.024 125.955 69.392C125.755 69.76 125.655 70.192 125.655 70.688C125.655 71.192 125.755 71.632 125.955 72.008C126.155 72.376 126.423 72.66 126.759 72.86C127.095 73.052 127.467 73.148 127.875 73.148C128.283 73.148 128.655 73.052 128.991 72.86C129.335 72.66 129.607 72.376 129.807 72.008C130.007 71.632 130.107 71.196 130.107 70.7ZM135.385 74.108C134.881 74.108 134.429 74.024 134.029 73.856C133.629 73.68 133.313 73.44 133.081 73.136C132.849 72.824 132.721 72.468 132.697 72.068H133.825C133.857 72.396 134.009 72.664 134.281 72.872C134.561 73.08 134.925 73.184 135.373 73.184C135.789 73.184 136.117 73.092 136.357 72.908C136.597 72.724 136.717 72.492 136.717 72.212C136.717 71.924 136.589 71.712 136.333 71.576C136.077 71.432 135.681 71.292 135.145 71.156C134.657 71.028 134.257 70.9 133.945 70.772C133.641 70.636 133.377 70.44 133.153 70.184C132.937 69.92 132.829 69.576 132.829 69.152C132.829 68.816 132.929 68.508 133.129 68.228C133.329 67.948 133.613 67.728 133.981 67.568C134.349 67.4 134.769 67.316 135.241 67.316C135.969 67.316 136.557 67.5 137.005 67.868C137.453 68.236 137.693 68.74 137.725 69.38H136.633C136.609 69.036 136.469 68.76 136.213 68.552C135.965 68.344 135.629 68.24 135.205 68.24C134.813 68.24 134.501 68.324 134.269 68.492C134.037 68.66 133.921 68.88 133.921 69.152C133.921 69.368 133.989 69.548 134.125 69.692C134.269 69.828 134.445 69.94 134.653 70.028C134.869 70.108 135.165 70.2 135.541 70.304C136.013 70.432 136.397 70.56 136.693 70.688C136.989 70.808 137.241 70.992 137.449 71.24C137.665 71.488 137.777 71.812 137.785 72.212C137.785 72.572 137.685 72.896 137.485 73.184C137.285 73.472 137.001 73.7 136.633 73.868C136.273 74.028 135.857 74.108 135.385 74.108ZM141.654 74.108C141.15 74.108 140.698 74.024 140.298 73.856C139.898 73.68 139.582 73.44 139.35 73.136C139.118 72.824 138.99 72.468 138.966 72.068H140.094C140.126 72.396 140.278 72.664 140.55 72.872C140.83 73.08 141.194 73.184 141.642 73.184C142.058 73.184 142.386 73.092 142.626 72.908C142.866 72.724 142.986 72.492 142.986 72.212C142.986 71.924 142.858 71.712 142.602 71.576C142.346 71.432 141.95 71.292 141.414 71.156C140.926 71.028 140.526 70.9 140.214 70.772C139.91 70.636 139.646 70.44 139.422 70.184C139.206 69.92 139.098 69.576 139.098 69.152C139.098 68.816 139.198 68.508 139.398 68.228C139.598 67.948 139.882 67.728 140.25 67.568C140.618 67.4 141.038 67.316 141.51 67.316C142.238 67.316 142.826 67.5 143.274 67.868C143.722 68.236 143.962 68.74 143.994 69.38H142.902C142.878 69.036 142.738 68.76 142.482 68.552C142.234 68.344 141.898 68.24 141.474 68.24C141.082 68.24 140.77 68.324 140.538 68.492C140.306 68.66 140.19 68.88 140.19 69.152C140.19 69.368 140.258 69.548 140.394 69.692C140.538 69.828 140.714 69.94 140.922 70.028C141.138 70.108 141.434 70.2 141.81 70.304C142.282 70.432 142.666 70.56 142.962 70.688C143.258 70.808 143.51 70.992 143.718 71.24C143.934 71.488 144.046 71.812 144.054 72.212C144.054 72.572 143.954 72.896 143.754 73.184C143.554 73.472 143.27 73.7 142.902 73.868C142.542 74.028 142.126 74.108 141.654 74.108ZM151.596 70.46C151.596 70.668 151.584 70.888 151.56 71.12H146.304C146.344 71.768 146.564 72.276 146.964 72.644C147.372 73.004 147.864 73.184 148.44 73.184C148.912 73.184 149.304 73.076 149.616 72.86C149.936 72.636 150.16 72.34 150.288 71.972H151.464C151.288 72.604 150.936 73.12 150.408 73.52C149.88 73.912 149.224 74.108 148.44 74.108C147.816 74.108 147.256 73.968 146.76 73.688C146.272 73.408 145.888 73.012 145.608 72.5C145.328 71.98 145.188 71.38 145.188 70.7C145.188 70.02 145.324 69.424 145.596 68.912C145.868 68.4 146.248 68.008 146.736 67.736C147.232 67.456 147.8 67.316 148.44 67.316C149.064 67.316 149.616 67.452 150.096 67.724C150.576 67.996 150.944 68.372 151.2 68.852C151.464 69.324 151.596 69.86 151.596 70.46ZM150.468 70.232C150.468 69.816 150.376 69.46 150.192 69.164C150.008 68.86 149.756 68.632 149.436 68.48C149.124 68.32 148.776 68.24 148.392 68.24C147.84 68.24 147.368 68.416 146.976 68.768C146.592 69.12 146.372 69.608 146.316 70.232H150.468ZM154.129 68.492C154.321 68.116 154.593 67.824 154.945 67.616C155.305 67.408 155.741 67.304 156.253 67.304V68.432H155.965C154.741 68.432 154.129 69.096 154.129 70.424V74H153.037V67.424H154.129V68.492ZM158.846 68.324V72.2C158.846 72.52 158.914 72.748 159.05 72.884C159.186 73.012 159.422 73.076 159.758 73.076H160.562V74H159.578C158.97 74 158.514 73.86 158.21 73.58C157.906 73.3 157.754 72.84 157.754 72.2V68.324H156.902V67.424H157.754V65.768H158.846V67.424H160.562V68.324H158.846ZM162.449 66.356C162.241 66.356 162.065 66.284 161.921 66.14C161.777 65.996 161.705 65.82 161.705 65.612C161.705 65.404 161.777 65.228 161.921 65.084C162.065 64.94 162.241 64.868 162.449 64.868C162.649 64.868 162.817 64.94 162.953 65.084C163.097 65.228 163.169 65.404 163.169 65.612C163.169 65.82 163.097 65.996 162.953 66.14C162.817 66.284 162.649 66.356 162.449 66.356ZM162.977 67.424V74H161.885V67.424H162.977ZM167.286 72.992L169.326 67.424H170.49L167.91 74H166.638L164.058 67.424H165.234L167.286 72.992ZM174.433 74.108C173.817 74.108 173.257 73.968 172.753 73.688C172.257 73.408 171.865 73.012 171.577 72.5C171.297 71.98 171.157 71.38 171.157 70.7C171.157 70.028 171.301 69.436 171.589 68.924C171.885 68.404 172.285 68.008 172.789 67.736C173.293 67.456 173.857 67.316 174.481 67.316C175.105 67.316 175.669 67.456 176.173 67.736C176.677 68.008 177.073 68.4 177.361 68.912C177.657 69.424 177.805 70.02 177.805 70.7C177.805 71.38 177.653 71.98 177.349 72.5C177.053 73.012 176.649 73.408 176.137 73.688C175.625 73.968 175.057 74.108 174.433 74.108ZM174.433 73.148C174.825 73.148 175.193 73.056 175.537 72.872C175.881 72.688 176.157 72.412 176.365 72.044C176.581 71.676 176.689 71.228 176.689 70.7C176.689 70.172 176.585 69.724 176.377 69.356C176.169 68.988 175.897 68.716 175.561 68.54C175.225 68.356 174.861 68.264 174.469 68.264C174.069 68.264 173.701 68.356 173.365 68.54C173.037 68.716 172.773 68.988 172.573 69.356C172.373 69.724 172.273 70.172 172.273 70.7C172.273 71.236 172.369 71.688 172.561 72.056C172.761 72.424 173.025 72.7 173.353 72.884C173.681 73.06 174.041 73.148 174.433 73.148Z" fill="#1E1E1E"/>
<defs>
<filter id="filter0_d_26_5" x="0.0999985" y="14.95" width="273.532" height="61.8" filterUnits="userSpaceOnUse" color-interpolation-filters="sRGB">
<feFlood flood-opacity="0" result="BackgroundImageFix"/>
<feColorMatrix in="SourceAlpha" type="matrix" values="0 0 0 0 0 0 0 0 0 0 0 0 0 0 0 0 0 0 127 0" result="hardAlpha"/>
<feOffset dy="4"/>
<feGaussianBlur stdDeviation="2"/>
<feComposite in2="hardAlpha" operator="out"/>
<feColorMatrix type="matrix" values="0 0 0 0 0 0 0 0 0 0 0 0 0 0 0 0 0 0 0.25 0"/>
<feBlend mode="normal" in2="BackgroundImageFix" result="effect1_dropShadow_26_5"/>
<feBlend mode="normal" in="SourceGraphic" in2="effect1_dropShadow_26_5" result="shape"/>
</filter>
<filter id="filter1_i_26_5" x="158" y="13" width="12" height="16" filterUnits="userSpaceOnUse" color-interpolation-filters="sRGB">
<feFlood flood-opacity="0" result="BackgroundImageFix"/>
<feBlend mode="normal" in="SourceGraphic" in2="BackgroundImageFix" result="shape"/>
<feColorMatrix in="SourceAlpha" type="matrix" values="0 0 0 0 0 0 0 0 0 0 0 0 0 0 0 0 0 0 127 0" result="hardAlpha"/>
<feOffset dy="4"/>
<feGaussianBlur stdDeviation="2"/>
<feComposite in2="hardAlpha" operator="arithmetic" k2="-1" k3="1"/>
<feColorMatrix type="matrix" values="0 0 0 0 0 0 0 0 0 0 0 0 0 0 0 0 0 0 0.25 0"/>
<feBlend mode="normal" in2="shape" result="effect1_innerShadow_26_5"/>
</filter>
</defs>
</svg>
