<svg width="274" height="77" viewBox="0 0 274 77" fill="none" xmlns="http://www.w3.org/2000/svg">
<g filter="url(#filter0_d_24_12)">
<path d="M26.95 19.9V26.75H12.65V34.15H23.35V40.8H12.65V55H4.1V19.9H26.95ZM57.7437 40.6C57.7437 41.4 57.6938 42.2333 57.5938 43.1H38.2438C38.3771 44.8333 38.9271 46.1667 39.8938 47.1C40.8938 48 42.1104 48.45 43.5438 48.45C45.6771 48.45 47.1604 47.55 47.9938 45.75H57.0938C56.6271 47.5833 55.7771 49.2333 54.5438 50.7C53.3438 52.1667 51.8271 53.3167 49.9938 54.15C48.1604 54.9833 46.1104 55.4 43.8438 55.4C41.1104 55.4 38.6771 54.8167 36.5438 53.65C34.4104 52.4833 32.7438 50.8167 31.5438 48.65C30.3438 46.4833 29.7438 43.95 29.7438 41.05C29.7438 38.15 30.3271 35.6167 31.4938 33.45C32.6938 31.2833 34.3604 29.6167 36.4938 28.45C38.6271 27.2833 41.0771 26.7 43.8438 26.7C46.5438 26.7 48.9438 27.2667 51.0438 28.4C53.1438 29.5333 54.7771 31.15 55.9438 33.25C57.1438 35.35 57.7437 37.8 57.7437 40.6ZM48.9938 38.35C48.9938 36.8833 48.4938 35.7167 47.4938 34.85C46.4938 33.9833 45.2438 33.55 43.7438 33.55C42.3104 33.55 41.0938 33.9667 40.0938 34.8C39.1271 35.6333 38.5271 36.8167 38.2938 38.35H48.9938ZM88.5543 40.6C88.5543 41.4 88.5043 42.2333 88.4043 43.1H69.0543C69.1876 44.8333 69.7376 46.1667 70.7043 47.1C71.7043 48 72.921 48.45 74.3543 48.45C76.4876 48.45 77.971 47.55 78.8043 45.75H87.9043C87.4376 47.5833 86.5876 49.2333 85.3543 50.7C84.1543 52.1667 82.6376 53.3167 80.8043 54.15C78.971 54.9833 76.921 55.4 74.6543 55.4C71.921 55.4 69.4876 54.8167 67.3543 53.65C65.221 52.4833 63.5543 50.8167 62.3543 48.65C61.1543 46.4833 60.5543 43.95 60.5543 41.05C60.5543 38.15 61.1376 35.6167 62.3043 33.45C63.5043 31.2833 65.171 29.6167 67.3043 28.45C69.4376 27.2833 71.8876 26.7 74.6543 26.7C77.3543 26.7 79.7543 27.2667 81.8543 28.4C83.9543 29.5333 85.5876 31.15 86.7543 33.25C87.9543 35.35 88.5543 37.8 88.5543 40.6ZM79.8043 38.35C79.8043 36.8833 79.3043 35.7167 78.3043 34.85C77.3043 33.9833 76.0543 33.55 74.5543 33.55C73.121 33.55 71.9043 33.9667 70.9043 34.8C69.9376 35.6333 69.3376 36.8167 69.1043 38.35H79.8043ZM91.3648 41C91.3648 38.1333 91.8982 35.6167 92.9648 33.45C94.0648 31.2833 95.5482 29.6167 97.4148 28.45C99.2815 27.2833 101.365 26.7 103.665 26.7C105.498 26.7 107.165 27.0833 108.665 27.85C110.198 28.6167 111.398 29.65 112.265 30.95V18H120.815V55H112.265V51C111.465 52.3333 110.315 53.4 108.815 54.2C107.348 55 105.632 55.4 103.665 55.4C101.365 55.4 99.2815 54.8167 97.4148 53.65C95.5482 52.45 94.0648 50.7667 92.9648 48.6C91.8982 46.4 91.3648 43.8667 91.3648 41ZM112.265 41.05C112.265 38.9167 111.665 37.2333 110.465 36C109.298 34.7667 107.865 34.15 106.165 34.15C104.465 34.15 103.015 34.7667 101.815 36C100.648 37.2 100.065 38.8667 100.065 41C100.065 43.1333 100.648 44.8333 101.815 46.1C103.015 47.3333 104.465 47.95 106.165 47.95C107.865 47.95 109.298 47.3333 110.465 46.1C111.665 44.8667 112.265 43.1833 112.265 41.05ZM148.25 37C150.284 37.4333 151.917 38.45 153.15 40.05C154.384 41.6167 155 43.4167 155 45.45C155 48.3833 153.967 50.7167 151.9 52.45C149.867 54.15 147.017 55 143.35 55H127V19.9H142.8C146.367 19.9 149.15 20.7167 151.15 22.35C153.184 23.9833 154.2 26.2 154.2 29C154.2 31.0667 153.65 32.7833 152.55 34.15C151.484 35.5167 150.05 36.4667 148.25 37ZM135.55 34.1H141.15C142.55 34.1 143.617 33.8 144.35 33.2C145.117 32.5667 145.5 31.65 145.5 30.45C145.5 29.25 145.117 28.3333 144.35 27.7C143.617 27.0667 142.55 26.75 141.15 26.75H135.55V34.1ZM141.85 48.1C143.284 48.1 144.384 47.7833 145.15 47.15C145.95 46.4833 146.35 45.5333 146.35 44.3C146.35 43.0667 145.934 42.1 145.1 41.4C144.3 40.7 143.184 40.35 141.75 40.35H135.55V48.1H141.85ZM164.259 24.2C162.759 24.2 161.526 23.7667 160.559 22.9C159.626 22 159.159 20.9 159.159 19.6C159.159 18.2667 159.626 17.1667 160.559 16.3C161.526 15.4 162.759 14.95 164.259 14.95C165.726 14.95 166.926 15.4 167.859 16.3C168.826 17.1667 169.309 18.2667 169.309 19.6C169.309 20.9 168.826 22 167.859 22.9C166.926 23.7667 165.726 24.2 164.259 24.2ZM168.509 27.1V55H159.959V27.1H168.509ZM191.705 26.8C194.972 26.8 197.572 27.8667 199.505 30C201.472 32.1 202.455 35 202.455 38.7V55H193.955V39.85C193.955 37.9833 193.472 36.5333 192.505 35.5C191.539 34.4667 190.239 33.95 188.605 33.95C186.972 33.95 185.672 34.4667 184.705 35.5C183.739 36.5333 183.255 37.9833 183.255 39.85V55H174.705V27.1H183.255V30.8C184.122 29.5667 185.289 28.6 186.755 27.9C188.222 27.1667 189.872 26.8 191.705 26.8ZM218.997 26.7C220.964 26.7 222.68 27.1 224.147 27.9C225.647 28.7 226.797 29.75 227.597 31.05V27.1H236.147V54.95C236.147 57.5167 235.63 59.8333 234.597 61.9C233.597 64 232.047 65.6667 229.947 66.9C227.88 68.1333 225.297 68.75 222.197 68.75C218.064 68.75 214.714 67.7667 212.147 65.8C209.58 63.8667 208.114 61.2333 207.747 57.9H216.197C216.464 58.9667 217.097 59.8 218.097 60.4C219.097 61.0333 220.33 61.35 221.797 61.35C223.564 61.35 224.964 60.8333 225.997 59.8C227.064 58.8 227.597 57.1833 227.597 54.95V51C226.764 52.3 225.614 53.3667 224.147 54.2C222.68 55 220.964 55.4 218.997 55.4C216.697 55.4 214.614 54.8167 212.747 53.65C210.88 52.45 209.397 50.7667 208.297 48.6C207.23 46.4 206.697 43.8667 206.697 41C206.697 38.1333 207.23 35.6167 208.297 33.45C209.397 31.2833 210.88 29.6167 212.747 28.45C214.614 27.2833 216.697 26.7 218.997 26.7ZM227.597 41.05C227.597 38.9167 226.997 37.2333 225.797 36C224.63 34.7667 223.197 34.15 221.497 34.15C219.797 34.15 218.347 34.7667 217.147 36C215.98 37.2 215.397 38.8667 215.397 41C215.397 43.1333 215.98 44.8333 217.147 46.1C218.347 47.3333 219.797 47.95 221.497 47.95C223.197 47.95 224.63 47.3333 225.797 46.1C226.997 44.8667 227.597 43.1833 227.597 41.05ZM255.032 55.4C252.299 55.4 249.832 54.8167 247.632 53.65C245.466 52.4833 243.749 50.8167 242.482 48.65C241.249 46.4833 240.632 43.95 240.632 41.05C240.632 38.1833 241.266 35.6667 242.532 33.5C243.799 31.3 245.532 29.6167 247.732 28.45C249.932 27.2833 252.399 26.7 255.132 26.7C257.866 26.7 260.332 27.2833 262.532 28.45C264.732 29.6167 266.466 31.3 267.732 33.5C268.999 35.6667 269.632 38.1833 269.632 41.05C269.632 43.9167 268.982 46.45 267.682 48.65C266.416 50.8167 264.666 52.4833 262.432 53.65C260.232 54.8167 257.766 55.4 255.032 55.4ZM255.032 48C256.666 48 258.049 47.4 259.182 46.2C260.349 45 260.932 43.2833 260.932 41.05C260.932 38.8167 260.366 37.1 259.232 35.9C258.132 34.7 256.766 34.1 255.132 34.1C253.466 34.1 252.082 34.7 250.982 35.9C249.882 37.0667 249.332 38.7833 249.332 41.05C249.332 43.2833 249.866 45 250.932 46.2C252.032 47.4 253.399 48 255.032 48Z" fill="#242D3D"/>
</g>
<path d="M170 19C170 22.3137 167 25 164 25C160.686 25 158 22.3137 158 19C158 15.6863 160.686 13 164 13C167.314 13 170 15.6863 170 19Z" fill="#00B288"/>
<defs>
<filter id="filter0_d_24_12" x="0.0999985" y="14.95" width="273.532" height="61.8" filterUnits="userSpaceOnUse" color-interpolation-filters="sRGB">
<feFlood flood-opacity="0" result="BackgroundImageFix"/>
<feColorMatrix in="SourceAlpha" type="matrix" values="0 0 0 0 0 0 0 0 0 0 0 0 0 0 0 0 0 0 127 0" result="hardAlpha"/>
<feOffset dy="4"/>
<feGaussianBlur stdDeviation="2"/>
<feComposite in2="hardAlpha" operator="out"/>
<feColorMatrix type="matrix" values="0 0 0 0 0 0 0 0 0 0 0 0 0 0 0 0 0 0 0.25 0"/>
<feBlend mode="normal" in2="BackgroundImageFix" result="effect1_dropShadow_24_12"/>
<feBlend mode="normal" in="SourceGraphic" in2="effect1_dropShadow_24_12" result="shape"/>
</filter>
</defs>
</svg>
