<svg width="274" height="90" viewBox="0 0 274 90" fill="none" xmlns="http://www.w3.org/2000/svg">
<g filter="url(#filter0_d_31_12)">
<path d="M26.95 19.9V26.75H12.65V34.15H23.35V40.8H12.65V55H4.1V19.9H26.95ZM57.7437 40.6C57.7437 41.4 57.6938 42.2333 57.5938 43.1H38.2438C38.3771 44.8333 38.9271 46.1667 39.8938 47.1C40.8938 48 42.1104 48.45 43.5438 48.45C45.6771 48.45 47.1604 47.55 47.9938 45.75H57.0938C56.6271 47.5833 55.7771 49.2333 54.5438 50.7C53.3438 52.1667 51.8271 53.3167 49.9938 54.15C48.1604 54.9833 46.1104 55.4 43.8438 55.4C41.1104 55.4 38.6771 54.8167 36.5438 53.65C34.4104 52.4833 32.7438 50.8167 31.5438 48.65C30.3438 46.4833 29.7438 43.95 29.7438 41.05C29.7438 38.15 30.3271 35.6167 31.4938 33.45C32.6938 31.2833 34.3604 29.6167 36.4938 28.45C38.6271 27.2833 41.0771 26.7 43.8438 26.7C46.5438 26.7 48.9438 27.2667 51.0438 28.4C53.1438 29.5333 54.7771 31.15 55.9438 33.25C57.1438 35.35 57.7437 37.8 57.7437 40.6ZM48.9938 38.35C48.9938 36.8833 48.4938 35.7167 47.4938 34.85C46.4938 33.9833 45.2438 33.55 43.7438 33.55C42.3104 33.55 41.0938 33.9667 40.0938 34.8C39.1271 35.6333 38.5271 36.8167 38.2938 38.35H48.9938ZM88.5543 40.6C88.5543 41.4 88.5043 42.2333 88.4043 43.1H69.0543C69.1876 44.8333 69.7376 46.1667 70.7043 47.1C71.7043 48 72.921 48.45 74.3543 48.45C76.4876 48.45 77.971 47.55 78.8043 45.75H87.9043C87.4376 47.5833 86.5876 49.2333 85.3543 50.7C84.1543 52.1667 82.6376 53.3167 80.8043 54.15C78.971 54.9833 76.921 55.4 74.6543 55.4C71.921 55.4 69.4876 54.8167 67.3543 53.65C65.221 52.4833 63.5543 50.8167 62.3543 48.65C61.1543 46.4833 60.5543 43.95 60.5543 41.05C60.5543 38.15 61.1376 35.6167 62.3043 33.45C63.5043 31.2833 65.171 29.6167 67.3043 28.45C69.4376 27.2833 71.8876 26.7 74.6543 26.7C77.3543 26.7 79.7543 27.2667 81.8543 28.4C83.9543 29.5333 85.5876 31.15 86.7543 33.25C87.9543 35.35 88.5543 37.8 88.5543 40.6ZM79.8043 38.35C79.8043 36.8833 79.3043 35.7167 78.3043 34.85C77.3043 33.9833 76.0543 33.55 74.5543 33.55C73.121 33.55 71.9043 33.9667 70.9043 34.8C69.9376 35.6333 69.3376 36.8167 69.1043 38.35H79.8043ZM91.3648 41C91.3648 38.1333 91.8982 35.6167 92.9648 33.45C94.0648 31.2833 95.5482 29.6167 97.4148 28.45C99.2815 27.2833 101.365 26.7 103.665 26.7C105.498 26.7 107.165 27.0833 108.665 27.85C110.198 28.6167 111.398 29.65 112.265 30.95V18H120.815V55H112.265V51C111.465 52.3333 110.315 53.4 108.815 54.2C107.348 55 105.632 55.4 103.665 55.4C101.365 55.4 99.2815 54.8167 97.4148 53.65C95.5482 52.45 94.0648 50.7667 92.9648 48.6C91.8982 46.4 91.3648 43.8667 91.3648 41ZM112.265 41.05C112.265 38.9167 111.665 37.2333 110.465 36C109.298 34.7667 107.865 34.15 106.165 34.15C104.465 34.15 103.015 34.7667 101.815 36C100.648 37.2 100.065 38.8667 100.065 41C100.065 43.1333 100.648 44.8333 101.815 46.1C103.015 47.3333 104.465 47.95 106.165 47.95C107.865 47.95 109.298 47.3333 110.465 46.1C111.665 44.8667 112.265 43.1833 112.265 41.05ZM148.25 37C150.284 37.4333 151.917 38.45 153.15 40.05C154.384 41.6167 155 43.4167 155 45.45C155 48.3833 153.967 50.7167 151.9 52.45C149.867 54.15 147.017 55 143.35 55H127V19.9H142.8C146.367 19.9 149.15 20.7167 151.15 22.35C153.184 23.9833 154.2 26.2 154.2 29C154.2 31.0667 153.65 32.7833 152.55 34.15C151.484 35.5167 150.05 36.4667 148.25 37ZM135.55 34.1H141.15C142.55 34.1 143.617 33.8 144.35 33.2C145.117 32.5667 145.5 31.65 145.5 30.45C145.5 29.25 145.117 28.3333 144.35 27.7C143.617 27.0667 142.55 26.75 141.15 26.75H135.55V34.1ZM141.85 48.1C143.284 48.1 144.384 47.7833 145.15 47.15C145.95 46.4833 146.35 45.5333 146.35 44.3C146.35 43.0667 145.934 42.1 145.1 41.4C144.3 40.7 143.184 40.35 141.75 40.35H135.55V48.1H141.85ZM164.259 24.2C162.759 24.2 161.526 23.7667 160.559 22.9C159.626 22 159.159 20.9 159.159 19.6C159.159 18.2667 159.626 17.1667 160.559 16.3C161.526 15.4 162.759 14.95 164.259 14.95C165.726 14.95 166.926 15.4 167.859 16.3C168.826 17.1667 169.309 18.2667 169.309 19.6C169.309 20.9 168.826 22 167.859 22.9C166.926 23.7667 165.726 24.2 164.259 24.2ZM168.509 27.1V55H159.959V27.1H168.509ZM191.705 26.8C194.972 26.8 197.572 27.8667 199.505 30C201.472 32.1 202.455 35 202.455 38.7V55H193.955V39.85C193.955 37.9833 193.472 36.5333 192.505 35.5C191.539 34.4667 190.239 33.95 188.605 33.95C186.972 33.95 185.672 34.4667 184.705 35.5C183.739 36.5333 183.255 37.9833 183.255 39.85V55H174.705V27.1H183.255V30.8C184.122 29.5667 185.289 28.6 186.755 27.9C188.222 27.1667 189.872 26.8 191.705 26.8ZM218.997 26.7C220.964 26.7 222.68 27.1 224.147 27.9C225.647 28.7 226.797 29.75 227.597 31.05V27.1H236.147V54.95C236.147 57.5167 235.63 59.8333 234.597 61.9C233.597 64 232.047 65.6667 229.947 66.9C227.88 68.1333 225.297 68.75 222.197 68.75C218.064 68.75 214.714 67.7667 212.147 65.8C209.58 63.8667 208.114 61.2333 207.747 57.9H216.197C216.464 58.9667 217.097 59.8 218.097 60.4C219.097 61.0333 220.33 61.35 221.797 61.35C223.564 61.35 224.964 60.8333 225.997 59.8C227.064 58.8 227.597 57.1833 227.597 54.95V51C226.764 52.3 225.614 53.3667 224.147 54.2C222.68 55 220.964 55.4 218.997 55.4C216.697 55.4 214.614 54.8167 212.747 53.65C210.88 52.45 209.397 50.7667 208.297 48.6C207.23 46.4 206.697 43.8667 206.697 41C206.697 38.1333 207.23 35.6167 208.297 33.45C209.397 31.2833 210.88 29.6167 212.747 28.45C214.614 27.2833 216.697 26.7 218.997 26.7ZM227.597 41.05C227.597 38.9167 226.997 37.2333 225.797 36C224.63 34.7667 223.197 34.15 221.497 34.15C219.797 34.15 218.347 34.7667 217.147 36C215.98 37.2 215.397 38.8667 215.397 41C215.397 43.1333 215.98 44.8333 217.147 46.1C218.347 47.3333 219.797 47.95 221.497 47.95C223.197 47.95 224.63 47.3333 225.797 46.1C226.997 44.8667 227.597 43.1833 227.597 41.05ZM255.032 55.4C252.299 55.4 249.832 54.8167 247.632 53.65C245.466 52.4833 243.749 50.8167 242.482 48.65C241.249 46.4833 240.632 43.95 240.632 41.05C240.632 38.1833 241.266 35.6667 242.532 33.5C243.799 31.3 245.532 29.6167 247.732 28.45C249.932 27.2833 252.399 26.7 255.132 26.7C257.866 26.7 260.332 27.2833 262.532 28.45C264.732 29.6167 266.466 31.3 267.732 33.5C268.999 35.6667 269.632 38.1833 269.632 41.05C269.632 43.9167 268.982 46.45 267.682 48.65C266.416 50.8167 264.666 52.4833 262.432 53.65C260.232 54.8167 257.766 55.4 255.032 55.4ZM255.032 48C256.666 48 258.049 47.4 259.182 46.2C260.349 45 260.932 43.2833 260.932 41.05C260.932 38.8167 260.366 37.1 259.232 35.9C258.132 34.7 256.766 34.1 255.132 34.1C253.466 34.1 252.082 34.7 250.982 35.9C249.882 37.0667 249.332 38.7833 249.332 41.05C249.332 43.2833 249.866 45 250.932 46.2C252.032 47.4 253.399 48 255.032 48Z" fill="#242D3D"/>
</g>
<g filter="url(#filter1_i_31_12)">
<path d="M170 19C170 22.3137 167 25 164 25C160.686 25 158 22.3137 158 19C158 15.6863 160.686 13 164 13C167.314 13 170 15.6863 170 19Z" fill="#00B288"/>
</g>
<path d="M31.594 74.242V75.278H27.352V78.568H30.796V79.604H27.352V84H26.078V74.242H31.594ZM34.4067 75.278V78.54H37.9627V79.59H34.4067V82.95H38.3827V84H33.1327V74.228H38.3827V75.278H34.4067ZM41.5844 75.278V78.54H45.1404V79.59H41.5844V82.95H45.5604V84H40.3104V74.228H45.5604V75.278H41.5844ZM50.5262 74.242C51.5902 74.242 52.5095 74.4427 53.2842 74.844C54.0682 75.236 54.6655 75.8007 55.0762 76.538C55.4962 77.2753 55.7062 78.1433 55.7062 79.142C55.7062 80.1407 55.4962 81.0087 55.0762 81.746C54.6655 82.474 54.0682 83.034 53.2842 83.426C52.5095 83.8087 51.5902 84 50.5262 84H47.4882V74.242H50.5262ZM50.5262 82.95C51.7862 82.95 52.7475 82.6187 53.4102 81.956C54.0728 81.284 54.4042 80.346 54.4042 79.142C54.4042 77.9287 54.0682 76.9813 53.3962 76.3C52.7335 75.6187 51.7768 75.278 50.5262 75.278H48.7622V82.95H50.5262ZM62.2726 78.974C62.6273 79.03 62.9493 79.1747 63.2386 79.408C63.5373 79.6413 63.7706 79.9307 63.9386 80.276C64.1159 80.6213 64.2046 80.99 64.2046 81.382C64.2046 81.8767 64.0786 82.3247 63.8266 82.726C63.5746 83.118 63.2059 83.4307 62.7206 83.664C62.2446 83.888 61.6799 84 61.0266 84H57.3866V74.242H60.8866C61.5493 74.242 62.1139 74.354 62.5806 74.578C63.0473 74.7927 63.3973 75.0867 63.6306 75.46C63.8639 75.8333 63.9806 76.2533 63.9806 76.72C63.9806 77.2987 63.8219 77.7793 63.5046 78.162C63.1966 78.5353 62.7859 78.806 62.2726 78.974ZM58.6606 78.456H60.8026C61.3999 78.456 61.8619 78.316 62.1886 78.036C62.5153 77.756 62.6786 77.3687 62.6786 76.874C62.6786 76.3793 62.5153 75.992 62.1886 75.712C61.8619 75.432 61.3906 75.292 60.7746 75.292H58.6606V78.456ZM60.9146 82.95C61.5493 82.95 62.0439 82.8007 62.3986 82.502C62.7533 82.2033 62.9306 81.788 62.9306 81.256C62.9306 80.7147 62.7439 80.29 62.3706 79.982C61.9973 79.6647 61.4979 79.506 60.8726 79.506H58.6606V82.95H60.9146ZM71.7405 81.83H67.4845L66.7005 84H65.3565L68.8845 74.298H70.3545L73.8685 84H72.5245L71.7405 81.83ZM71.3765 80.794L69.6125 75.866L67.8485 80.794H71.3765ZM74.9301 79.114C74.9301 78.162 75.1448 77.308 75.5741 76.552C76.0035 75.7867 76.5868 75.1893 77.3241 74.76C78.0708 74.3307 78.8968 74.116 79.8021 74.116C80.8661 74.116 81.7948 74.3727 82.5881 74.886C83.3815 75.3993 83.9601 76.1273 84.3241 77.07H82.7981C82.5275 76.482 82.1355 76.0293 81.6221 75.712C81.1181 75.3947 80.5115 75.236 79.8021 75.236C79.1208 75.236 78.5095 75.3947 77.9681 75.712C77.4268 76.0293 77.0021 76.482 76.6941 77.07C76.3861 77.6487 76.2321 78.33 76.2321 79.114C76.2321 79.8887 76.3861 80.57 76.6941 81.158C77.0021 81.7367 77.4268 82.1847 77.9681 82.502C78.5095 82.8193 79.1208 82.978 79.8021 82.978C80.5115 82.978 81.1181 82.824 81.6221 82.516C82.1355 82.1987 82.5275 81.746 82.7981 81.158H84.3241C83.9601 82.0913 83.3815 82.8147 82.5881 83.328C81.7948 83.832 80.8661 84.084 79.8021 84.084C78.8968 84.084 78.0708 83.874 77.3241 83.454C76.5868 83.0247 76.0035 82.432 75.5741 81.676C75.1448 80.92 74.9301 80.066 74.9301 79.114ZM91.5126 84L87.4946 79.548V84H86.2206V74.242H87.4946V78.764L91.5266 74.242H93.1366L88.7126 79.128L93.1786 84H91.5126ZM101.428 84.098C100.784 84.098 100.205 83.986 99.6919 83.762C99.1879 83.5287 98.7912 83.2113 98.5019 82.81C98.2125 82.3993 98.0632 81.928 98.0539 81.396H99.4119C99.4585 81.8533 99.6452 82.2407 99.9719 82.558C100.308 82.866 100.793 83.02 101.428 83.02C102.035 83.02 102.511 82.8707 102.856 82.572C103.211 82.264 103.388 81.872 103.388 81.396C103.388 81.0227 103.285 80.7193 103.08 80.486C102.875 80.2527 102.618 80.0753 102.31 79.954C102.002 79.8327 101.587 79.702 101.064 79.562C100.42 79.394 99.9019 79.226 99.5099 79.058C99.1272 78.89 98.7959 78.6287 98.5159 78.274C98.2452 77.91 98.1099 77.4247 98.1099 76.818C98.1099 76.286 98.2452 75.8147 98.5159 75.404C98.7865 74.9933 99.1645 74.676 99.6499 74.452C100.145 74.228 100.709 74.116 101.344 74.116C102.259 74.116 103.005 74.3447 103.584 74.802C104.172 75.2593 104.503 75.866 104.578 76.622H103.178C103.131 76.2487 102.935 75.922 102.59 75.642C102.245 75.3527 101.787 75.208 101.218 75.208C100.686 75.208 100.252 75.348 99.9159 75.628C99.5799 75.8987 99.4119 76.2813 99.4119 76.776C99.4119 77.1307 99.5099 77.42 99.7059 77.644C99.9112 77.868 100.159 78.0407 100.448 78.162C100.747 78.274 101.162 78.4047 101.694 78.554C102.338 78.7313 102.856 78.9087 103.248 79.086C103.64 79.254 103.976 79.52 104.256 79.884C104.536 80.2387 104.676 80.724 104.676 81.34C104.676 81.816 104.55 82.264 104.298 82.684C104.046 83.104 103.673 83.4447 103.178 83.706C102.683 83.9673 102.1 84.098 101.428 84.098ZM107.825 74.242V84H106.551V74.242H107.825ZM119.894 74.312V84H118.62V76.776L115.4 84H114.504L111.27 76.762V84H109.996V74.312H111.368L114.952 82.32L118.536 74.312H119.894ZM128.579 77.098C128.579 77.91 128.299 78.5867 127.739 79.128C127.188 79.66 126.343 79.926 125.205 79.926H123.329V84H122.055V74.242H125.205C126.306 74.242 127.141 74.508 127.711 75.04C128.289 75.572 128.579 76.258 128.579 77.098ZM125.205 78.876C125.914 78.876 126.437 78.722 126.773 78.414C127.109 78.106 127.277 77.6673 127.277 77.098C127.277 75.894 126.586 75.292 125.205 75.292H123.329V78.876H125.205ZM131.436 82.964H134.852V84H130.162V74.242H131.436V82.964ZM137.479 75.278V78.54H141.035V79.59H137.479V82.95H141.455V84H136.205V74.228H141.455V75.278H137.479ZM146.477 84.098C145.833 84.098 145.254 83.986 144.741 83.762C144.237 83.5287 143.84 83.2113 143.551 82.81C143.261 82.3993 143.112 81.928 143.103 81.396H144.461C144.507 81.8533 144.694 82.2407 145.021 82.558C145.357 82.866 145.842 83.02 146.477 83.02C147.083 83.02 147.559 82.8707 147.905 82.572C148.259 82.264 148.437 81.872 148.437 81.396C148.437 81.0227 148.334 80.7193 148.129 80.486C147.923 80.2527 147.667 80.0753 147.359 79.954C147.051 79.8327 146.635 79.702 146.113 79.562C145.469 79.394 144.951 79.226 144.559 79.058C144.176 78.89 143.845 78.6287 143.565 78.274C143.294 77.91 143.159 77.4247 143.159 76.818C143.159 76.286 143.294 75.8147 143.565 75.404C143.835 74.9933 144.213 74.676 144.699 74.452C145.193 74.228 145.758 74.116 146.393 74.116C147.307 74.116 148.054 74.3447 148.633 74.802C149.221 75.2593 149.552 75.866 149.627 76.622H148.227C148.18 76.2487 147.984 75.922 147.639 75.642C147.293 75.3527 146.836 75.208 146.267 75.208C145.735 75.208 145.301 75.348 144.965 75.628C144.629 75.8987 144.461 76.2813 144.461 76.776C144.461 77.1307 144.559 77.42 144.755 77.644C144.96 77.868 145.207 78.0407 145.497 78.162C145.795 78.274 146.211 78.4047 146.743 78.554C147.387 78.7313 147.905 78.9087 148.297 79.086C148.689 79.254 149.025 79.52 149.305 79.884C149.585 80.2387 149.725 80.724 149.725 81.34C149.725 81.816 149.599 82.264 149.347 82.684C149.095 83.104 148.721 83.4447 148.227 83.706C147.732 83.9673 147.149 84.098 146.477 84.098ZM156.606 75.278V78.54H160.162V79.59H156.606V82.95H160.582V84H155.332V74.228H160.582V75.278H156.606ZM172.01 81.83H167.754L166.97 84H165.626L169.154 74.298H170.624L174.138 84H172.794L172.01 81.83ZM171.646 80.794L169.882 75.866L168.118 80.794H171.646ZM178.77 84.098C178.126 84.098 177.547 83.986 177.034 83.762C176.53 83.5287 176.133 83.2113 175.844 82.81C175.554 82.3993 175.405 81.928 175.396 81.396H176.754C176.8 81.8533 176.987 82.2407 177.314 82.558C177.65 82.866 178.135 83.02 178.77 83.02C179.376 83.02 179.852 82.8707 180.198 82.572C180.552 82.264 180.73 81.872 180.73 81.396C180.73 81.0227 180.627 80.7193 180.422 80.486C180.216 80.2527 179.96 80.0753 179.652 79.954C179.344 79.8327 178.928 79.702 178.406 79.562C177.762 79.394 177.244 79.226 176.852 79.058C176.469 78.89 176.138 78.6287 175.858 78.274C175.587 77.91 175.452 77.4247 175.452 76.818C175.452 76.286 175.587 75.8147 175.858 75.404C176.128 74.9933 176.506 74.676 176.992 74.452C177.486 74.228 178.051 74.116 178.686 74.116C179.6 74.116 180.347 74.3447 180.926 74.802C181.514 75.2593 181.845 75.866 181.92 76.622H180.52C180.473 76.2487 180.277 75.922 179.932 75.642C179.586 75.3527 179.129 75.208 178.56 75.208C178.028 75.208 177.594 75.348 177.258 75.628C176.922 75.8987 176.754 76.2813 176.754 76.776C176.754 77.1307 176.852 77.42 177.048 77.644C177.253 77.868 177.5 78.0407 177.79 78.162C178.088 78.274 178.504 78.4047 179.036 78.554C179.68 78.7313 180.198 78.9087 180.59 79.086C180.982 79.254 181.318 79.52 181.598 79.884C181.878 80.2387 182.018 80.724 182.018 81.34C182.018 81.816 181.892 82.264 181.64 82.684C181.388 83.104 181.014 83.4447 180.52 83.706C180.025 83.9673 179.442 84.098 178.77 84.098ZM186.986 84.098C186.342 84.098 185.764 83.986 185.25 83.762C184.746 83.5287 184.35 83.2113 184.06 82.81C183.771 82.3993 183.622 81.928 183.612 81.396H184.97C185.017 81.8533 185.204 82.2407 185.53 82.558C185.866 82.866 186.352 83.02 186.986 83.02C187.593 83.02 188.069 82.8707 188.414 82.572C188.769 82.264 188.946 81.872 188.946 81.396C188.946 81.0227 188.844 80.7193 188.638 80.486C188.433 80.2527 188.176 80.0753 187.868 79.954C187.56 79.8327 187.145 79.702 186.622 79.562C185.978 79.394 185.46 79.226 185.068 79.058C184.686 78.89 184.354 78.6287 184.074 78.274C183.804 77.91 183.668 77.4247 183.668 76.818C183.668 76.286 183.804 75.8147 184.074 75.404C184.345 74.9933 184.723 74.676 185.208 74.452C185.703 74.228 186.268 74.116 186.902 74.116C187.817 74.116 188.564 74.3447 189.142 74.802C189.73 75.2593 190.062 75.866 190.136 76.622H188.736C188.69 76.2487 188.494 75.922 188.148 75.642C187.803 75.3527 187.346 75.208 186.776 75.208C186.244 75.208 185.81 75.348 185.474 75.628C185.138 75.8987 184.97 76.2813 184.97 76.776C184.97 77.1307 185.068 77.42 185.264 77.644C185.47 77.868 185.717 78.0407 186.006 78.162C186.305 78.274 186.72 78.4047 187.252 78.554C187.896 78.7313 188.414 78.9087 188.806 79.086C189.198 79.254 189.534 79.52 189.814 79.884C190.094 80.2387 190.234 80.724 190.234 81.34C190.234 81.816 190.108 82.264 189.856 82.684C189.604 83.104 189.231 83.4447 188.736 83.706C188.242 83.9673 187.658 84.098 186.986 84.098ZM193.383 75.278V78.54H196.939V79.59H193.383V82.95H197.359V84H192.109V74.228H197.359V75.278H193.383ZM204.425 84L202.101 80.01H200.561V84H199.287V74.242H202.437C203.174 74.242 203.795 74.368 204.299 74.62C204.812 74.872 205.195 75.2127 205.447 75.642C205.699 76.0713 205.825 76.5613 205.825 77.112C205.825 77.784 205.629 78.3767 205.237 78.89C204.854 79.4033 204.276 79.744 203.501 79.912L205.951 84H204.425ZM200.561 78.988H202.437C203.128 78.988 203.646 78.82 203.991 78.484C204.336 78.1387 204.509 77.6813 204.509 77.112C204.509 76.5333 204.336 76.0853 203.991 75.768C203.655 75.4507 203.137 75.292 202.437 75.292H200.561V78.988ZM213.811 74.242V75.278H211.151V84H209.877V75.278H207.203V74.242H213.811ZM216.653 74.242V84H215.379V74.242H216.653ZM226.888 74.242L223.206 84H221.736L218.054 74.242H219.412L222.478 82.656L225.544 74.242H226.888ZM232.709 84.098C231.804 84.098 230.978 83.888 230.231 83.468C229.484 83.0387 228.892 82.446 228.453 81.69C228.024 80.9247 227.809 80.066 227.809 79.114C227.809 78.162 228.024 77.308 228.453 76.552C228.892 75.7867 229.484 75.194 230.231 74.774C230.978 74.3447 231.804 74.13 232.709 74.13C233.624 74.13 234.454 74.3447 235.201 74.774C235.948 75.194 236.536 75.782 236.965 76.538C237.394 77.294 237.609 78.1527 237.609 79.114C237.609 80.0753 237.394 80.934 236.965 81.69C236.536 82.446 235.948 83.0387 235.201 83.468C234.454 83.888 233.624 84.098 232.709 84.098ZM232.709 82.992C233.39 82.992 234.002 82.8333 234.543 82.516C235.094 82.1987 235.523 81.746 235.831 81.158C236.148 80.57 236.307 79.8887 236.307 79.114C236.307 78.33 236.148 77.6487 235.831 77.07C235.523 76.482 235.098 76.0293 234.557 75.712C234.016 75.3947 233.4 75.236 232.709 75.236C232.018 75.236 231.402 75.3947 230.861 75.712C230.32 76.0293 229.89 76.482 229.573 77.07C229.265 77.6487 229.111 78.33 229.111 79.114C229.111 79.8887 229.265 80.57 229.573 81.158C229.89 81.746 230.32 82.1987 230.861 82.516C231.412 82.8333 232.028 82.992 232.709 82.992Z" fill="black"/>
<path d="M31 64L201 63.5" stroke="#00B288"/>
<defs>
<filter id="filter0_d_31_12" x="0.0999985" y="14.95" width="273.532" height="61.8" filterUnits="userSpaceOnUse" color-interpolation-filters="sRGB">
<feFlood flood-opacity="0" result="BackgroundImageFix"/>
<feColorMatrix in="SourceAlpha" type="matrix" values="0 0 0 0 0 0 0 0 0 0 0 0 0 0 0 0 0 0 127 0" result="hardAlpha"/>
<feOffset dy="4"/>
<feGaussianBlur stdDeviation="2"/>
<feComposite in2="hardAlpha" operator="out"/>
<feColorMatrix type="matrix" values="0 0 0 0 0 0 0 0 0 0 0 0 0 0 0 0 0 0 0.25 0"/>
<feBlend mode="normal" in2="BackgroundImageFix" result="effect1_dropShadow_31_12"/>
<feBlend mode="normal" in="SourceGraphic" in2="effect1_dropShadow_31_12" result="shape"/>
</filter>
<filter id="filter1_i_31_12" x="158" y="13" width="12" height="16" filterUnits="userSpaceOnUse" color-interpolation-filters="sRGB">
<feFlood flood-opacity="0" result="BackgroundImageFix"/>
<feBlend mode="normal" in="SourceGraphic" in2="BackgroundImageFix" result="shape"/>
<feColorMatrix in="SourceAlpha" type="matrix" values="0 0 0 0 0 0 0 0 0 0 0 0 0 0 0 0 0 0 127 0" result="hardAlpha"/>
<feOffset dy="4"/>
<feGaussianBlur stdDeviation="2"/>
<feComposite in2="hardAlpha" operator="arithmetic" k2="-1" k3="1"/>
<feColorMatrix type="matrix" values="0 0 0 0 0 0 0 0 0 0 0 0 0 0 0 0 0 0 0.25 0"/>
<feBlend mode="normal" in2="shape" result="effect1_innerShadow_31_12"/>
</filter>
</defs>
</svg>
