<?xml version="1.0" encoding="UTF-8"?>
<svg version="1.1" xmlns="http://www.w3.org/2000/svg" width="457" height="99">
<path d="M0 0 C2.4375 1.5625 2.4375 1.5625 3.4375 2.5625 C3.7675 1.5725 4.0975 0.5825 4.4375 -0.4375 C9.7175 -0.4375 14.9975 -0.4375 20.4375 -0.4375 C20.53686358 6.64253716 20.60920315 13.72216248 20.65722656 20.80273438 C20.67726034 23.20807981 20.70449522 25.61337703 20.73925781 28.01855469 C20.78813808 31.48905378 20.81055205 34.95890526 20.828125 38.4296875 C20.84877014 39.49363739 20.86941528 40.55758728 20.89068604 41.65377808 C20.89293 49.23186852 19.91755276 56.63020945 14.71636963 62.5072937 C8.29361882 68.54688857 1.36774699 68.95593048 -7.1484375 68.8125 C-14.36412472 68.28412016 -19.48024585 65.64475415 -24.5625 60.5625 C-27.01269562 56.642187 -27.70089741 54.11423694 -27.5625 49.5625 C-25.16475255 49.42677845 -22.77474755 49.32813132 -20.375 49.25 C-19.70146484 49.20810547 -19.02792969 49.16621094 -18.33398438 49.12304688 C-14.31686255 49.02506829 -12.82977459 49.32240587 -9.796875 52.046875 C-8.69085938 53.29210937 -8.69085938 53.29210937 -7.5625 54.5625 C-3.60470351 55.18741523 -1.55386114 55.17256839 1.875 53.0625 C4.14779038 49.42603539 3.72031164 46.80467465 3.4375 42.5625 C2.5403125 43.2740625 2.5403125 43.2740625 1.625 44 C-3.21980211 47.46057293 -8.84144171 47.25809315 -14.5625 46.5625 C-21.24188223 43.89738225 -25.18233217 39.37212736 -28.3125 33 C-31.06114373 24.93629935 -30.39015989 16.45941295 -26.8984375 8.7578125 C-24.22301888 4.36136436 -20.60589339 1.77749066 -16.25 -0.8125 C-10.6015727 -2.12608774 -5.39692126 -2.17770507 0 0 Z M-11.5625 14.5625 C-14.4000356 18.81880339 -14.19180381 22.56789888 -13.5625 27.5625 C-12.21271698 30.73071233 -12.21271698 30.73071233 -9.5625 32.5625 C-5.61320721 33.71138518 -3.53291141 33.99379396 0.25 32.3125 C2.84644128 30.23534698 4.28545851 28.60557537 4.7734375 25.2578125 C4.83684481 21.08561167 4.79777901 18.26864686 2.875 14.5 C-2.07318356 10.56682845 -6.69228654 10.66632924 -11.5625 14.5625 Z " fill="#242C3C" transform="translate(374.5625,26.4375)"/>
<path d="M0 0 C8.1984375 -0.0928125 8.1984375 -0.0928125 16.5625 -0.1875 C19.12946655 -0.22846802 19.12946655 -0.22846802 21.74829102 -0.27026367 C23.12515561 -0.27903653 24.50202807 -0.28667857 25.87890625 -0.29296875 C26.92637024 -0.3159906 26.92637024 -0.3159906 27.99499512 -0.33947754 C34.53628189 -0.3429173 39.01101806 1.18397301 43.875 5.625 C46.50548988 9.80283686 47.30870469 13.08718543 47 18 C45.46802307 22.27340934 43.36309443 24.98481189 40 28 C40.49371094 28.54269531 40.98742187 29.08539063 41.49609375 29.64453125 C42.13675781 30.35996094 42.77742188 31.07539062 43.4375 31.8125 C44.07558594 32.52019531 44.71367187 33.22789063 45.37109375 33.95703125 C48.40375419 37.7605838 48.31936793 41.28932309 48 46 C46.10672504 51.2590971 43.40216785 53.79008594 39 57 C35.24179299 58.25273567 31.74510785 58.12392962 27.83203125 58.09765625 C27.12735718 58.09664917 26.42268311 58.09564209 25.69665527 58.09460449 C23.06858692 58.08937914 20.4405418 58.07541786 17.8125 58.0625 C11.934375 58.041875 6.05625 58.02125 0 58 C0 38.86 0 19.72 0 0 Z M16 12 C16 15.63 16 19.26 16 23 C17.93681161 23.08107583 19.8745934 23.13922475 21.8125 23.1875 C22.89144531 23.22230469 23.97039062 23.25710937 25.08203125 23.29296875 C27.98685144 23.24916796 27.98685144 23.24916796 29.86328125 21.64453125 C31.48797756 19.29402559 31.4189057 17.79270468 31 15 C29.91436455 13.23557203 29.91436455 13.23557203 28 12 C25.02807238 11.63680691 25.02807238 11.63680691 21.8125 11.8125 C20.18248047 11.85310547 20.18248047 11.85310547 18.51953125 11.89453125 C17.68808594 11.92933594 16.85664063 11.96414062 16 12 Z M16 34 C16 37.96 16 41.92 16 46 C18.10388569 46.05402274 20.20816714 46.09280256 22.3125 46.125 C23.48425781 46.14820313 24.65601563 46.17140625 25.86328125 46.1953125 C29.16393661 46.25320618 29.16393661 46.25320618 32 44 C32.66676878 40.54250051 32.66676878 40.54250051 32 37 C29.59104787 34.42491324 27.68847006 34.0425459 24.21875 33.828125 C21.47860408 33.81400054 18.73839415 33.9010219 16 34 Z " fill="#242D3C" transform="translate(213,14)"/>
<path d="M0 0 C5.28 0 10.56 0 16 0 C16 20.13 16 40.26 16 61 C10.72 61 5.44 61 0 61 C-0.33 60.01 -0.66 59.02 -1 58 C-1.8971875 58.7115625 -1.8971875 58.7115625 -2.8125 59.4375 C-7.45174113 62.75124367 -12.51600339 62.57769104 -18 62 C-24.48521636 60.03648294 -28.6647754 56.19963779 -31.96875 50.2578125 C-35.3233725 42.7720345 -35.11431747 34.2862362 -32.4375 26.625 C-29.84189829 20.89994942 -25.988156 17.77674141 -20.6875 14.625 C-12.22452733 12.65686682 -8.01908969 13.99045515 0 18 C0 12.06 0 6.12 0 0 Z M-16 30 C-18.8375356 34.25630339 -18.62930381 38.00539888 -18 43 C-16.65021698 46.16821233 -16.65021698 46.16821233 -14 48 C-10.05070721 49.14888518 -7.97041141 49.43129396 -4.1875 47.75 C-1.59105872 45.67284698 -0.15204149 44.04307537 0.3359375 40.6953125 C0.39934481 36.52311167 0.36027901 33.70614686 -1.5625 29.9375 C-6.51068356 26.00432845 -11.12978654 26.10382924 -16 30 Z " fill="#242C3C" transform="translate(189,11)"/>
<path d="M0 0 C4.91833498 4.13587259 8.43418481 8.73673926 10 15 C10 18.3 10 21.6 10 25 C-0.56 25 -11.12 25 -22 25 C-20.5679835 29.78988522 -20.5679835 29.78988522 -18.25 31.375 C-15.16083683 32.23310088 -13.07276879 31.84991477 -10 31 C-9.40445313 30.23816406 -9.40445313 30.23816406 -8.796875 29.4609375 C-5.95455024 27.15000389 -2.80149505 27.68544976 0.6875 27.8125 C1.7403418 27.83280273 1.7403418 27.83280273 2.81445312 27.85351562 C4.54329829 27.88879818 6.27174765 27.94260417 8 28 C8.495 28.99 8.495 28.99 9 30 C6.66508695 36.69341741 1.41059047 41.21719135 -4.75 44.4375 C-13.09985731 45.88266761 -20.30432538 45.89403455 -27.8046875 41.61328125 C-33.05630257 37.75399829 -36.589431 32.63767649 -37.81640625 26.19921875 C-38.45180058 18.58800578 -37.56440614 11.28293255 -33 5 C-24.29545263 -4.48626643 -11.33663618 -5.76776227 0 0 Z M-20 11 C-20.66 12.65 -21.32 14.3 -22 16 C-16.72 16 -11.44 16 -6 16 C-6.61412818 12.08574929 -6.61412818 12.08574929 -8.75 10.25 C-12.6888343 8.06175872 -16.35296525 8.3590438 -20 11 Z " fill="#242C3C" transform="translate(91,28)"/>
<path d="M0 0 C5.9817477 5.13754943 9.42677354 11.21365748 10.20703125 19.08984375 C10.25 21 10.25 21 10 24 C9 25 9 25 6.04077148 25.11352539 C4.74727783 25.10828857 3.45378418 25.10305176 2.12109375 25.09765625 C1.09110008 25.09553383 1.09110008 25.09553383 0.04029846 25.09336853 C-2.16067801 25.08775479 -4.36155409 25.07520007 -6.5625 25.0625 C-8.05143083 25.05748676 -9.54036324 25.05292355 -11.02929688 25.04882812 C-14.68623075 25.03778093 -18.34310558 25.02050713 -22 25 C-20.73468376 27.99989633 -20.73468376 27.99989633 -19 31 C-15.64407137 32.33660145 -15.64407137 32.33660145 -12 32 C-11.26136719 31.34257813 -10.52273437 30.68515625 -9.76171875 30.0078125 C-6.22051454 27.43330194 -3.38180489 27.54128818 0.8125 27.75 C1.50537109 27.76804687 2.19824219 27.78609375 2.91210938 27.8046875 C4.60867664 27.85148936 6.30452476 27.92322376 8 28 C7.28289827 34.05268006 5.31783961 36.88032211 1 41 C-5.92785865 45.94847047 -14.05824785 45.92585522 -22.28125 44.64453125 C-28.48327442 42.81099625 -32.37475438 38.16033767 -36 33 C-38.84788842 26.47358904 -39.10616052 18.68887781 -36.9375 11.875 C-34.3988093 6.02652095 -30.2368287 0.62892086 -24.3125 -2 C-16.66292358 -4.28744615 -6.89043985 -4.4253256 0 0 Z M-22 14 C-22 14.66 -22 15.32 -22 16 C-16.72 16 -11.44 16 -6 16 C-7.47639003 10.93991361 -7.47639003 10.93991361 -11 9 C-16.51835253 8.1602507 -18.5594315 9.74988597 -22 14 Z " fill="#242C3C" transform="translate(142,28)"/>
<path d="M0 0 C5.25206855 2.92903823 8.46718291 6.04693117 10.25 11.8125 C10.41496802 14.49260949 10.48378795 17.0624358 10.4453125 19.73828125 C10.4424826 20.48587204 10.43965271 21.23346283 10.43673706 22.00370789 C10.42559469 24.3776388 10.40050162 26.75118425 10.375 29.125 C10.36496249 30.7402289 10.35583799 32.35546376 10.34765625 33.97070312 C10.32738131 37.91823461 10.28822275 41.86493882 10.25 45.8125 C5.3 45.8125 0.35 45.8125 -4.75 45.8125 C-4.79898437 43.83765625 -4.84796875 41.8628125 -4.8984375 39.828125 C-4.97346811 37.23956908 -5.04901581 34.65102811 -5.125 32.0625 C-5.1559375 30.76054688 -5.186875 29.45859375 -5.21875 28.1171875 C-5.25742187 26.86679687 -5.29609375 25.61640625 -5.3359375 24.328125 C-5.38306885 22.59997559 -5.38306885 22.59997559 -5.43115234 20.83691406 C-5.73668037 17.93884273 -6.15042306 16.22145861 -7.75 13.8125 C-10.59083641 12.39208179 -12.60477278 12.49797728 -15.75 12.8125 C-18.7304924 15.02122162 -19.64957174 16.23921452 -20.29589844 19.92871094 C-20.32731934 21.71970215 -20.32731934 21.71970215 -20.359375 23.546875 C-20.39160156 24.84238281 -20.42382812 26.13789062 -20.45703125 27.47265625 C-20.47177469 28.83593302 -20.48609222 30.19921445 -20.5 31.5625 C-20.52816814 32.94144376 -20.55809678 34.32035275 -20.58984375 35.69921875 C-20.6605593 39.0699935 -20.70754094 42.44125093 -20.75 45.8125 C-26.03 45.8125 -31.31 45.8125 -36.75 45.8125 C-36.75 30.6325 -36.75 15.4525 -36.75 -0.1875 C-31.47 -0.1875 -26.19 -0.1875 -20.75 -0.1875 C-20.75 0.8025 -20.75 1.7925 -20.75 2.8125 C-19.615625 2.1525 -18.48125 1.4925 -17.3125 0.8125 C-11.30669186 -2.16918213 -6.3163647 -2.00018216 0 0 Z " fill="#242D3D" transform="translate(328.75,26.1875)"/>
<path d="M0 0 C5.13604754 5.25277589 7.50644691 11.22009199 8 18.5 C7.87088091 26.20410565 5.22691907 32.46005636 -0.25 37.8125 C-7.61645481 42.97729528 -14.4579053 43.43325123 -23.25 42.8125 C-30.39458255 41.32745584 -34.33625838 37.47047447 -38.5 31.6875 C-42.28571605 25.46810934 -41.79306296 18.89592991 -41.25 11.8125 C-39.56763617 5.08304467 -34.77029596 0.72000361 -29.25 -3.1875 C-19.86092065 -8.09542784 -8.3738528 -5.63624708 0 0 Z M-24.25 10.8125 C-26.77422359 15.74620975 -26.35258431 19.55402097 -25.25 24.8125 C-24.36670357 27.35208234 -24.36670357 27.35208234 -22.25 28.8125 C-19.53362434 29.71403032 -17.10530442 30.0573994 -14.25 29.8125 C-10.76868367 27.73852432 -9.53513718 26.66791154 -8.25 22.8125 C-7.90452849 17.45769163 -7.78637989 14.1740957 -11.25 9.8125 C-16.1245384 6.56280773 -19.71946569 7.1390938 -24.25 10.8125 Z " fill="#242C3C" transform="translate(442.25,30.1875)"/>
<path d="M0 0 C12.87 0 25.74 0 39 0 C39 3.96 39 7.92 39 12 C31.41 12 23.82 12 16 12 C16 15.63 16 19.26 16 23 C21.61 23 27.22 23 33 23 C33 26.96 33 30.92 33 35 C27.39 35 21.78 35 16 35 C16 42.59 16 50.18 16 58 C10.72 58 5.44 58 0 58 C0 38.86 0 19.72 0 0 Z " fill="#252D3C" transform="translate(11,14)"/>
<path d="M0 0 C4.95 0 9.9 0 15 0 C15 15.18 15 30.36 15 46 C10.05 46 5.1 46 0 46 C0 30.82 0 15.64 0 0 Z " fill="#252C3C" transform="translate(268,26)"/>
<path d="M0 0 C3.32528748 2.16143686 3.87192336 3.56774133 5 7.375 C5 11.83668484 3.81998243 13.61602108 1 17 C-2.7222727 18.86113635 -6.9467617 18.56719844 -11 18 C-14.19310336 15.71921189 -15.56780318 14.15252485 -16.9375 10.5 C-17.01636187 7.34552518 -16.61049305 5.73083603 -15 3 C-10.1795776 -1.46770857 -6.08676504 -1.78205668 0 0 Z " fill="#0BAE87" transform="translate(281,6)"/>
<path d="M0 0 C0.66 0.33 1.32 0.66 2 1 C1.505 1.391875 1.01 1.78375 0.5 2.1875 C-1.17792247 3.90610279 -1.17792247 3.90610279 -1.375 6.25 C-0.87730463 9.89976604 0.43227017 12.66857411 2 16 C0.125 15.4375 0.125 15.4375 -2 14 C-3.521525 10.33450795 -4.28406561 8.06524604 -3.25 4.1875 C-2 2 -2 2 0 0 Z " fill="#2CA384" transform="translate(268,7)"/>
<path d="M0 0 C0.66 0 1.32 0 2 0 C2.28571429 7.42857143 2.28571429 7.42857143 0 11 C-1.28571429 3.57142857 -1.28571429 3.57142857 0 0 Z M-2 11 C0 12 0 12 0 12 Z " fill="#2D3441" transform="translate(227,25)"/>
</svg>
