<?xml version="1.0" standalone="no"?>
<!DOCTYPE svg PUBLIC "-//W3C//DTD SVG 20010904//EN"
 "http://www.w3.org/TR/2001/REC-SVG-20010904/DTD/svg10.dtd">
<svg version="1.0" xmlns="http://www.w3.org/2000/svg"
 width="185.000000pt" height="300.000000pt" viewBox="0 0 185.000000 300.000000"
 preserveAspectRatio="xMidYMid meet">
<metadata>
Created by potrace 1.10, written by Peter Selinger 2001-2011
</metadata>
<g transform="translate(0.000000,300.000000) scale(0.100000,-0.100000)"
fill="#000000" stroke="none">
<path d="M909 2816 c7 -8 37 -19 69 -25 119 -23 153 -31 171 -40 10 -6 31 -12
47 -15 56 -10 174 -66 212 -99 37 -34 29 -63 -30 -100 -51 -31 -102 -54 -141
-62 -10 -2 -43 -13 -73 -24 -30 -12 -54 -19 -54 -16 0 2 -18 -2 -40 -10 -22
-8 -57 -16 -78 -19 -20 -2 -49 -9 -64 -15 -15 -5 -44 -12 -65 -15 -21 -3 -59
-11 -85 -19 -27 -8 -48 -13 -48 -11 0 2 -19 -3 -41 -12 -23 -8 -51 -16 -63
-18 -62 -12 -203 -77 -238 -111 -76 -72 -3 -139 235 -215 31 -10 57 -16 57
-13 0 3 7 0 15 -7 8 -7 15 -10 15 -7 0 4 19 -1 42 -9 23 -8 62 -17 87 -20 24
-3 52 -9 61 -14 9 -5 34 -11 56 -14 37 -4 191 -43 204 -51 4 -2 18 -6 32 -9
14 -2 60 -18 103 -35 117 -47 155 -96 113 -147 -11 -15 -153 -84 -171 -84 -8
0 -31 -7 -51 -15 -20 -8 -38 -15 -41 -15 -3 0 -6 0 -7 -1 -2 0 -10 -2 -18 -4
-8 -1 -35 -8 -60 -15 -25 -7 -54 -14 -65 -15 -45 -7 -129 -25 -179 -40 -29 -9
-64 -18 -76 -20 -13 -2 -37 -9 -55 -15 -18 -6 -41 -12 -52 -14 -44 -9 -121
-39 -184 -72 -71 -37 -97 -73 -84 -113 11 -35 135 -109 220 -132 17 -4 71 -19
120 -33 50 -14 108 -28 130 -32 22 -3 42 -7 46 -9 5 -4 120 -30 179 -41 79
-15 271 -86 319 -119 81 -53 62 -100 -61 -151 -35 -14 -79 -33 -99 -41 -19 -8
-46 -16 -60 -17 -13 -2 -46 -10 -74 -18 -54 -17 -131 -35 -180 -44 -16 -2 -45
-9 -63 -15 -18 -6 -43 -12 -55 -13 -12 -2 -47 -10 -77 -19 -30 -9 -82 -24
-115 -33 -131 -37 -235 -105 -235 -154 0 -10 11 -32 25 -48 25 -30 130 -87
175 -95 14 -3 43 -12 65 -20 44 -16 104 -31 205 -53 77 -17 80 -17 80 -5 0 12
-22 19 -76 26 -23 3 -60 11 -83 19 -22 9 -41 13 -41 11 0 -2 -25 5 -55 15 -30
10 -55 17 -55 15 0 -6 -112 40 -149 61 -19 11 -44 32 -55 47 l-20 27 20 27
c28 38 85 68 183 99 47 14 89 27 95 28 6 1 17 5 24 9 6 5 12 6 12 3 0 -3 18 1
39 9 22 7 56 16 78 19 21 4 46 9 55 12 17 5 44 11 88 20 14 3 46 11 73 19 26
8 47 12 47 10 0 -2 19 2 41 11 23 8 51 16 63 18 32 7 118 40 171 67 83 42 106
94 63 143 -35 38 -136 89 -193 96 -5 1 -25 8 -44 16 -19 8 -48 17 -65 19 -17
3 -51 12 -76 20 -25 8 -58 16 -75 18 -16 2 -46 9 -65 15 -50 15 -170 43 -202
47 -15 2 -36 8 -46 14 -10 6 -30 12 -43 15 -76 15 -203 77 -225 110 -12 19
-13 29 -5 45 11 20 101 88 101 76 0 -3 14 2 31 11 29 14 110 41 148 49 9 2 43
11 76 20 33 10 67 19 75 20 33 3 98 18 160 36 36 10 79 21 97 24 18 3 43 9 57
15 15 5 26 7 26 4 0 -4 7 -1 15 6 8 7 15 10 15 7 0 -14 183 65 221 95 20 16
39 52 39 72 0 28 -55 75 -121 105 -54 24 -154 58 -181 61 -4 0 -29 8 -55 16
-27 8 -64 17 -83 19 -19 3 -49 10 -67 16 -17 5 -44 12 -60 15 -34 6 -129 30
-201 50 -29 9 -61 17 -70 19 -15 3 -72 24 -142 53 -29 11 -90 65 -90 80 0 21
45 64 93 89 53 26 153 62 197 69 14 3 45 11 70 18 51 15 130 34 175 42 17 2
44 9 60 14 17 5 42 11 56 14 69 11 249 71 317 104 57 28 102 72 102 101 0 34
-41 70 -117 107 -42 20 -86 38 -98 40 -12 2 -39 11 -59 19 -20 8 -36 13 -36
11 0 -3 -25 4 -57 15 -31 10 -58 17 -60 15 -2 -2 -28 2 -56 10 -65 17 -72 17
-58 0z"/>
</g>
</svg>
